<svg width="24" height="24" viewBox="0 0 24 24" fill="none" xmlns="http://www.w3.org/2000/svg" transform="rotate(-45)">
<path d="M16.24 7.75977L14.436 13.1708C14.3378 13.4653 14.1724 13.733 13.9528 13.9526C13.7333 14.1722 13.4656 14.3376 13.171 14.4358L7.76001 16.2398L9.56401 10.8288C9.66219 10.5342 9.82762 10.2665 10.0472 10.0469C10.2668 9.82737 10.5344 9.66195 10.829 9.56377L16.24 7.75977Z" stroke="#020202" stroke-opacity="0.88" stroke-width="1.5" stroke-linecap="round" stroke-linejoin="round"/>
<path d="M14 14L10 10L16 8L14 14Z" fill="#020202" fill-opacity="0.88"/>
<path d="M12 22C17.5228 22 22 17.5228 22 12C22 6.47715 17.5228 2 12 2C6.47715 2 2 6.47715 2 12C2 17.5228 6.47715 22 12 22Z" stroke="#020202" stroke-opacity="0.88" stroke-width="1.5" stroke-linecap="round" stroke-linejoin="round"/>
</svg>
