<svg width="18" height="22" viewBox="0 0 18 22" fill="none" xmlns="http://www.w3.org/2000/svg">
<mask id="mask0_1824_8616" style="mask-type:luminance" maskUnits="userSpaceOnUse" x="0" y="5" width="18" height="17">
<path d="M17.854 5.56641V16.2367H17.8462C17.8384 16.3533 17.7452 16.4776 17.582 16.5787L9.28975 21.3737C9.21204 21.4203 9.12655 21.4514 9.04106 21.4747C8.7846 21.5524 8.49706 21.5524 8.28722 21.4747C8.24059 21.4592 8.20951 21.4359 8.17065 21.4203L1.89125 17.791L0.352491 16.9051C0.220375 16.8274 0.158203 16.7263 0.158203 16.6175V5.97053H0.251461H0.298091C0.313634 5.98607 0.329177 5.99384 0.352491 6.00938L8.17065 10.5246C8.4582 10.6956 8.96335 10.6723 9.28975 10.478L17.582 5.68298C17.6364 5.65189 17.683 5.61303 17.7141 5.57418H17.854V5.56641Z" fill="white"/>
</mask>
<g mask="url(#mask0_1824_8616)">
<path d="M17.854 5.56641H0.158203V21.5524H17.854V5.56641Z" fill="#492266"/>
<path d="M18.6329 13.5476V22.3294H-0.617188V4.78906H18.6329V13.5476Z" fill="#492266"/>
<path d="M18.6329 13.5087V22.3294H-0.617188V4.78906H18.6329V13.5087Z" fill="#492266"/>
<path d="M18.6329 13.4699V22.3294H-0.617188V4.78906H18.6329V13.4699Z" fill="#492266"/>
<path d="M18.6329 13.4232V22.3294H-0.617188V4.78906H18.6329V13.4232Z" fill="#492266"/>
<path d="M18.6329 13.3844V22.3294H-0.617188V4.78906H18.6329V13.3844Z" fill="#492266"/>
<path d="M18.6329 13.3455V22.3294H-0.617188V4.78906H18.6329V13.3455Z" fill="#492266"/>
<path d="M18.6329 13.3067V22.3294H-0.617188V4.78906H18.6329V13.3067Z" fill="#492266"/>
<path d="M18.6329 13.26V22.3294H-0.617188V4.78906H18.6329V13.26Z" fill="#492266"/>
<path d="M18.6329 13.2212V22.3294H-0.617188V4.78906H18.6329V13.2212Z" fill="#4A2267"/>
<path d="M18.6329 13.1823V22.3294H-0.617188V4.78906H18.6329V13.1823Z" fill="#4A2367"/>
<path d="M18.6329 13.1435V22.3294H-0.617188V4.78906H18.6329V13.1435Z" fill="#4A2367"/>
<path d="M18.6329 13.0968V22.3294H-0.617188V4.78906H18.6329V13.0968Z" fill="#4A2367"/>
<path d="M18.6329 13.058V22.3294H-0.617188V4.78906H18.6329V13.058Z" fill="#4A2367"/>
<path d="M18.6329 13.0191V22.3294H-0.617188V4.78906H18.6329V13.0191Z" fill="#4A2367"/>
<path d="M18.6329 12.9803V22.3294H-0.617188V4.78906H18.6329V12.9803Z" fill="#4B2368"/>
<path d="M18.6329 12.9336V22.3294H-0.617188V4.78906H18.6329V12.9336Z" fill="#4B2468"/>
<path d="M18.6329 12.8948V22.3294H-0.617188V4.78906H18.6329V12.8948Z" fill="#4B2468"/>
<path d="M18.6329 12.8559V22.3294H-0.617188V4.78906H18.6329V12.8559Z" fill="#4B2468"/>
<path d="M18.6329 12.8171V22.3294H-0.617188V4.78906H18.6329V12.8171Z" fill="#4C2469"/>
<path d="M18.6329 12.7704V22.3294H-0.617188V4.78906H18.6329V12.7704Z" fill="#4C2569"/>
<path d="M18.6329 12.7316V22.3294H-0.617188V4.78906H18.6329V12.7316Z" fill="#4C2569"/>
<path d="M18.6329 12.6927V22.3294H-0.617188V4.78906H18.6329V12.6927Z" fill="#4D256A"/>
<path d="M18.6329 12.6539V22.3294H-0.617188V4.78906H18.6329V12.6539Z" fill="#4D256A"/>
<path d="M18.6329 12.6072V22.3294H-0.617188V4.78906H18.6329V12.6072Z" fill="#4D266A"/>
<path d="M18.6329 12.5684V22.3294H-0.617188V4.78906H18.6329V12.5684Z" fill="#4E266B"/>
<path d="M18.6329 12.5295V22.3294H-0.617188V4.78906H18.6329V12.5295Z" fill="#4E266B"/>
<path d="M18.6329 12.4829V22.3294H-0.617188V4.78906H18.6329V12.4829Z" fill="#4E276B"/>
<path d="M18.6329 12.444V22.3294H-0.617188V4.78906H18.6329V12.444Z" fill="#4F276C"/>
<path d="M18.6329 12.4052V22.3294H-0.617188V4.78906H18.6329V12.4052Z" fill="#4F276C"/>
<path d="M18.6329 12.3663V22.3294H-0.617188V4.78906H18.6329V12.3663Z" fill="#50286D"/>
<path d="M18.6329 12.3197V22.3294H-0.617188V4.78906H18.6329V12.3197Z" fill="#50286D"/>
<path d="M18.6329 12.2808V22.3294H-0.617188V4.78906H18.6329V12.2808Z" fill="#51296E"/>
<path d="M18.6329 12.242V22.3294H-0.617188V4.78906H18.6329V12.242Z" fill="#51296E"/>
<path d="M18.6329 12.2031V22.3294H-0.617188V4.78906H18.6329V12.2031Z" fill="#522A6F"/>
<path d="M18.6329 12.1565V22.3294H-0.617188V4.78906H18.6329V12.1565Z" fill="#522A6F"/>
<path d="M18.6329 12.1176V22.3294H-0.617188V4.78906H18.6329V12.1176Z" fill="#532A70"/>
<path d="M18.6329 12.0788V22.3294H-0.617188V4.78906H18.6329V12.0788Z" fill="#532B70"/>
<path d="M18.6329 12.0399V22.3294H-0.617188V4.78906H18.6329V12.0399Z" fill="#542B71"/>
<path d="M18.6329 11.9933V22.3294H-0.617188V4.78906H18.6329V11.9933Z" fill="#542C71"/>
<path d="M18.6329 11.9544V22.3294H-0.617188V4.78906H18.6329V11.9544Z" fill="#552C72"/>
<path d="M18.6329 11.9156V22.3294H-0.617188V4.78906H18.6329V11.9156Z" fill="#552D72"/>
<path d="M18.6329 11.8767V22.3294H-0.617188V4.78906H18.6329V11.8767Z" fill="#562D73"/>
<path d="M18.6329 11.8301V22.3294H-0.617188V4.78906H18.6329V11.8301Z" fill="#572E74"/>
<path d="M18.6329 11.7912V22.3294H-0.617188V4.78906H18.6329V11.7912Z" fill="#572F74"/>
<path d="M18.6329 11.7524V22.3294H-0.617188V4.78906H18.6329V11.7524Z" fill="#582F75"/>
<path d="M18.6329 11.7135V22.3294H-0.617188V4.78906H18.6329V11.7135Z" fill="#583075"/>
<path d="M18.6329 11.6669V22.3294H-0.617188V4.78906H18.6329V11.6669Z" fill="#593076"/>
<path d="M18.6329 11.628V22.3294H-0.617188V4.78906H18.6329V11.628Z" fill="#5A3177"/>
<path d="M18.6329 11.5892V22.3294H-0.617188V4.78906H18.6329V11.5892Z" fill="#5B3178"/>
<path d="M18.6329 11.5503V22.3294H-0.617188V4.78906H18.6329V11.5503Z" fill="#5B3278"/>
<path d="M18.6329 11.5037V22.3294H-0.617188V4.78906H18.6329V11.5037Z" fill="#5C3379"/>
<path d="M18.6329 11.4648V22.3294H-0.617188V4.78906H18.6329V11.4648Z" fill="#5D337A"/>
<path d="M18.6329 11.426V22.3294H-0.617188V4.78906H18.6329V11.426Z" fill="#5D347A"/>
<path d="M18.6329 11.3793V22.3294H-0.617188V4.78906H18.6329V11.3793Z" fill="#5E357B"/>
<path d="M18.6329 11.3405V22.3294H-0.617188V4.78906H18.6329V11.3405Z" fill="#5F357C"/>
<path d="M18.6329 11.3016V22.3294H-0.617188V4.78906H18.6329V11.3016Z" fill="#60367D"/>
<path d="M18.6329 11.2627V22.3294H-0.617188V4.78906H18.6329V11.2627Z" fill="#61377E"/>
<path d="M18.6329 11.2161V22.3294H-0.617188V4.78906H18.6329V11.2161Z" fill="#61387E"/>
<path d="M18.6329 11.1773V22.3294H-0.617188V4.78906H18.6329V11.1773Z" fill="#62387F"/>
<path d="M18.6329 11.1384V22.3294H-0.617188V4.78906H18.6329V11.1384Z" fill="#633980"/>
<path d="M18.6329 11.0995V22.3294H-0.617188V4.78906H18.6329V11.0995Z" fill="#643A81"/>
<path d="M18.6329 11.0529V22.3294H-0.617188V4.78906H18.6329V11.0529Z" fill="#653B82"/>
<path d="M23.3658 11.014C23.3658 16.8815 21.5084 22.1973 18.5086 26.0442V22.3216H-0.617188V4.78125H18.6329V11.0062H23.3658V11.014Z" fill="#663B83"/>
<path d="M23.2026 10.9752C23.2026 16.8039 21.3607 22.0729 18.3842 25.8888V22.3294H-0.617188V4.78906H18.6329V10.9752H23.2026Z" fill="#673C84"/>
<path d="M23.0394 10.9363C23.0394 16.7184 21.2131 21.9486 18.2599 25.7333V22.3294H-0.609375V4.78906H18.6407V10.9363H23.0472H23.0394Z" fill="#673D84"/>
<path d="M22.8762 10.8897C22.8762 16.6251 21.0654 21.8165 18.1356 25.5701V22.3294H-0.609375V4.78906H18.6407V10.8897H22.884H22.8762Z" fill="#683E85"/>
<path d="M22.7051 10.8509C22.7051 16.5396 20.9099 21.6844 17.9956 25.4147V22.3294H-0.625V4.78906H18.6251V10.8509H22.6974H22.7051Z" fill="#693F86"/>
<path d="M22.542 10.812C22.542 16.4541 20.7545 21.56 17.8713 25.2593V22.3294H-0.617188V4.78906H18.6329V10.812H22.542Z" fill="#6A3F87"/>
<path d="M22.3788 10.7732C22.3788 16.3687 20.6069 21.4357 17.7469 25.1039V22.3372H-0.617188V4.79688H18.6329V10.781H22.3788V10.7732Z" fill="#6B4088"/>
<path d="M22.2078 10.7265C22.2078 16.2754 20.4514 21.3036 17.6148 24.9406V22.3294H-0.617188V4.78906H18.6329V10.7265H22.2078Z" fill="#6C4189"/>
<path d="M22.0446 10.6877C22.0446 16.1899 20.3038 21.1715 17.4905 24.7852V22.3294H-0.617188V4.78906H18.6329V10.6877H22.0446Z" fill="#6D428A"/>
<path d="M21.8814 10.6488C21.8814 16.1045 20.1561 21.0471 17.3661 24.6298V22.3372H-0.617188V4.79688H18.6329V10.6566H21.8814V10.6488Z" fill="#6E438B"/>
<path d="M21.7182 10.6099C21.7182 16.0189 20.0085 20.9228 17.2418 24.4666V22.3294H-0.609375V4.78906H18.6407V10.6099H21.726H21.7182Z" fill="#6F448C"/>
<path d="M21.5472 10.5633C21.5472 15.9334 19.853 20.7906 17.1097 24.3033V22.3216H-0.617188V4.78125H18.6329V10.5555H21.5472V10.5633Z" fill="#70458D"/>
<path d="M21.384 10.5245C21.384 15.848 19.6976 20.6663 16.9776 24.1479V22.3294H-0.617188V4.78906H18.6329V10.5245H21.384Z" fill="#71468E"/>
<path d="M21.2208 10.4856C21.2208 15.7625 19.5499 20.5342 16.8532 23.9925V22.3294H-0.617188V4.78906H18.6329V10.4856H21.2208Z" fill="#72468F"/>
<path d="M21.0498 10.4468C21.0498 15.677 19.3945 20.4099 16.7211 23.8371V22.3372H-0.625V4.79688H18.6251V10.4546H21.042L21.0498 10.4468Z" fill="#734790"/>
<path d="M20.8866 10.4001C20.8866 15.5837 19.2468 20.2777 16.5968 23.6739V22.3294H-0.617188V4.78906H18.6329V10.4001H20.8866Z" fill="#744891"/>
<path d="M20.7234 10.3612C20.7234 15.4982 19.0992 20.1534 16.4724 23.5185V22.3294H-0.617188V4.78906H18.6329V10.3612H20.7234Z" fill="#764993"/>
<path d="M20.5603 10.3224C20.5603 15.4128 18.9516 20.0213 16.3481 23.3631V22.3372H-0.609375V4.79688H18.6407V10.3302H20.568L20.5603 10.3224Z" fill="#774A94"/>
<path d="M20.3893 10.2758C20.3893 15.3195 18.7961 19.8891 16.216 23.1998V22.3294H-0.617188V4.78906H18.6329V10.2758H20.3893Z" fill="#784B95"/>
<path d="M20.2261 10.2369C20.2261 15.234 18.6484 19.7648 16.0916 23.0366V22.3216H-0.617188V4.78125H18.6329V10.2291H20.2261V10.2369Z" fill="#794C96"/>
<path d="M20.0629 10.198C20.0629 15.1485 18.493 19.6405 15.9595 22.8812V22.3294H-0.617188V4.78906H18.6329V10.198H20.0629Z" fill="#7A4D97"/>
<path d="M19.8918 10.1592C19.8918 15.0708 18.3375 19.5083 15.8273 22.7258V22.3294H-0.625V4.78906H18.6251V10.1592H19.8841H19.8918Z" fill="#7B4E98"/>
<path d="M19.7287 10.1126C19.7287 19.8347 13.5814 27.7229 5.98861 27.7229V22.3294H-0.617188V4.78906H18.6329V10.1126H19.7287Z" fill="#7C4F99"/>
<path d="M19.5655 10.0736C19.5655 19.7103 13.4726 27.5129 5.95753 27.5129V22.3215H-0.617188V4.78116H18.493V3.28125C19.1847 5.37179 19.5655 7.66439 19.5655 10.0736Z" fill="#7E509B"/>
<path d="M19.4022 10.0349C19.4022 19.5783 13.3637 27.311 5.92633 27.311C2.20377 27.311 -1.16907 25.3759 -3.60156 22.2517H-0.609524V4.78909H18.3452V3.3125C19.0291 5.37973 19.4022 7.64902 19.4022 10.0349Z" fill="#7F519C"/>
<path d="M19.2295 9.99614C19.2295 19.4463 13.2531 27.109 5.87796 27.109C2.19425 27.109 -1.14751 25.1973 -3.56445 22.0964H-0.626812V4.78921H18.1725V3.33594C18.8486 5.37985 19.2217 7.63359 19.2217 9.99614H19.2295Z" fill="#80539D"/>
<path d="M19.0666 9.94959C19.0666 19.3065 13.1447 26.8915 5.8472 26.8915C2.19458 26.8915 -1.10832 24.9953 -3.50195 21.9255H-0.618716V4.78152H18.0252V3.35156C18.6935 5.37993 19.0666 7.61036 19.0666 9.94959Z" fill="#81549E"/>
<path d="M18.9037 9.9109C18.9037 19.1746 13.044 26.6896 5.81644 26.6896C2.20268 26.6896 -1.06914 24.8089 -3.43945 21.778H-0.610618V4.78946H17.8779V3.38281C18.5384 5.38787 18.9037 7.59498 18.9037 9.9109Z" fill="#82559F"/>
<path d="M18.733 9.87221C18.733 19.0504 12.9276 26.4877 5.77006 26.4877C2.18738 26.4877 -1.04558 24.6303 -3.39258 21.6228H-0.618142V4.79739H17.7149V3.41406C18.3677 5.40357 18.733 7.58737 18.733 9.87998V9.87221Z" fill="#8456A1"/>
<path d="M18.5701 9.83343C18.5701 18.9183 12.8269 26.278 5.7393 26.278C2.19548 26.278 -1.01416 24.4361 -3.33008 21.4596H-0.617814V4.78971H17.5598V3.42969C18.2126 5.39588 18.5701 7.56414 18.5701 9.83343Z" fill="#8557A2"/>
<path d="M18.4072 9.78688C18.4072 18.7785 12.7184 26.0682 5.7085 26.0682C2.20354 26.0682 -0.975017 24.2497 -3.27539 21.2965H-0.617527V4.78201H17.4047V3.44531C18.0497 5.39597 18.3994 7.53314 18.3994 9.77911L18.4072 9.78688Z" fill="#8658A3"/>
<path d="M18.2443 9.74432C18.2443 18.6427 12.6177 25.8625 5.66993 25.8625C2.19606 25.8625 -0.943644 24.0595 -3.2207 21.1452H-0.61724V4.79386H17.2495V3.48047C17.8868 5.40781 18.2365 7.52944 18.2365 9.75209L18.2443 9.74432Z" fill="#8859A5"/>
<path d="M18.0736 9.70555C18.0736 18.5107 12.5014 25.6527 5.63136 25.6527C2.19634 25.6527 -0.912271 23.8653 -3.16602 20.982H-0.616953V4.78617H17.0944V3.49609C17.7239 5.40789 18.0736 7.49843 18.0736 9.70555Z" fill="#895AA6"/>
<path d="M17.9088 9.66681C17.9088 18.3865 12.3987 25.4508 5.59865 25.4508C2.19472 25.4508 -0.882811 23.6867 -3.10547 20.8267H-0.610808V4.78629H16.9529V3.51953C17.5746 5.40801 17.9243 7.48301 17.9243 9.65904L17.9088 9.66681Z" fill="#8A5BA7"/>
<path d="M17.7458 9.62026C17.7458 18.2467 12.2902 25.2333 5.56003 25.2333C2.19496 25.2333 -0.851479 23.4847 -3.05859 20.6558H-0.618333V4.7786H16.7899V3.53516C17.4038 5.40032 17.7458 7.45978 17.7458 9.61249V9.62026Z" fill="#8B5DA8"/>
<path d="M17.5751 9.58157C17.5751 18.1147 12.1817 25.0314 5.52147 25.0314C2.19525 25.0314 -0.820106 23.2983 -3.00391 20.5083H-0.625816V4.78654H16.627V3.56641C17.2332 5.41603 17.5751 7.4444 17.5751 9.58157Z" fill="#8D5EAA"/>
<path d="M17.4122 9.54284C17.4122 17.9827 12.0732 24.8294 5.49071 24.8294C2.19558 24.8294 -0.780921 23.1197 -2.94141 20.353H-0.617717V4.78666H16.4797V3.58984C17.0858 5.41615 17.42 7.42898 17.42 9.54284H17.4122Z" fill="#8E5FAB"/>
<path d="M17.2493 9.5041C17.2493 17.8507 11.9647 24.6197 5.45213 24.6197C2.19586 24.6197 -0.757319 22.9255 -2.88672 20.19H-0.617433V4.78678H16.3245V3.61328C16.9229 5.42405 17.2493 7.41356 17.2493 9.49633V9.5041Z" fill="#9060AD"/>
<path d="M17.0864 9.45755C17.0864 17.7187 11.864 24.41 5.42138 24.41C2.19619 24.41 -0.718134 22.7391 -2.82422 20.0268H-0.609334V4.77909H16.1772V3.62891C16.7678 5.41636 17.0942 7.38256 17.0942 9.44978L17.0864 9.45755Z" fill="#9161AE"/>
<path d="M16.9138 9.4189C16.9138 17.5868 11.7457 24.2081 5.38081 24.2081C2.19448 24.2081 -0.688755 22.5528 -2.7793 19.8794H-0.618812V4.79484H16.0123V3.66797C16.5951 5.43988 16.9215 7.38276 16.9215 9.42667L16.9138 9.4189Z" fill="#9263AF"/>
<path d="M16.7508 9.38013C16.7508 17.4547 11.6449 23.9984 5.34224 23.9984C2.19477 23.9984 -0.657382 22.3586 -2.72461 19.7163H-0.618525V4.78715H15.8571V3.68359C16.4322 5.43219 16.7508 7.35953 16.7508 9.37235V9.38013Z" fill="#9464B1"/>
<path d="M16.5881 9.33362C16.5881 17.315 11.5366 23.7887 5.31165 23.7887C-0.913348 23.7887 -5.96484 17.315 -5.96484 9.33362H-0.618031V4.7795H15.7022V3.70703C16.2695 5.44008 16.5881 7.33633 16.5881 9.33362Z" fill="#9565B2"/>
<path d="M16.4177 9.29493C16.4177 17.183 11.4283 23.5868 5.27328 23.5868C-0.881769 23.5868 -5.87109 17.1908 -5.87109 9.29493H-0.617538V4.78744H15.5472V3.73828C16.1146 5.44802 16.4254 7.32873 16.4254 9.3027L16.4177 9.29493Z" fill="#9766B4"/>
<path d="M16.2549 9.25619C16.2549 17.0588 11.32 23.3771 5.23487 23.3771C-0.850235 23.3771 -5.78516 17.051 -5.78516 9.25619H-0.624858V4.78756H15.3845V3.76172C15.944 5.44814 16.2471 7.30554 16.2471 9.25619H16.2549Z" fill="#9868B5"/>
<path d="M16.0903 9.21746C16.0903 16.9268 11.2175 23.1751 5.20237 23.1751C-0.812795 23.1751 -5.68555 16.9268 -5.68555 9.21746H-0.618508V4.78768H15.2354V3.78516C15.7872 5.45604 16.0903 7.29012 16.0903 9.21746Z" fill="#9969B6"/>
<path d="M15.9276 9.17128C15.9276 16.7874 11.1093 22.9658 5.17182 22.9658C-0.765635 22.9658 -5.58398 16.7952 -5.58398 9.17128H-0.610206V4.78814H12.7801V-0.574219C14.7308 1.92044 15.9276 5.371 15.9276 9.17905V9.17128Z" fill="#9B6AB8"/>
<path d="M15.7571 9.13283C15.7571 16.6557 11.0009 22.7563 5.1256 22.7563C-0.749682 22.7563 -5.50586 16.6557 -5.50586 9.13283H-0.625336V4.78855H12.6407V-0.496094C14.568 1.96748 15.7571 5.37918 15.7571 9.1406V9.13283Z" fill="#9C6CB9"/>
<path d="M15.5944 9.09435C15.5944 16.5239 10.8926 22.5546 5.09504 22.5546C-0.702522 22.5546 -5.4043 16.5317 -5.4043 9.09435H-0.617033V4.78892H12.5169V-0.425781C14.4209 2.00671 15.5944 5.37178 15.5944 9.09435Z" fill="#9E6DBB"/>
<path d="M15.4298 9.0559C15.4298 16.4 10.7902 22.3452 5.06254 22.3452C-0.665082 22.3452 -5.30469 16.3922 -5.30469 9.0559H-0.610683V4.78933H12.3989V-0.347656C14.2718 2.06152 15.4375 5.37996 15.4375 9.04813L15.4298 9.0559Z" fill="#9F6EBC"/>
<path d="M15.2592 9.00968C15.2592 16.2605 10.674 22.1358 5.01632 22.1358C-0.641359 22.1358 -5.22656 16.2605 -5.22656 9.00968H-0.625814V4.78974H12.2516V-0.269531C14.1012 2.10856 15.2514 5.38814 15.2514 9.00968H15.2592Z" fill="#A170BE"/>
<path d="M15.0965 8.96732C15.0965 16.1249 10.5657 21.9302 4.98576 21.9302C-0.594198 21.9302 -5.125 16.1249 -5.125 8.96732H-0.617512V4.78624H12.1356V-0.195312C13.9619 2.15169 15.0965 5.39242 15.0965 8.96732Z" fill="#A271BF"/>
<path d="M14.9319 8.92887C14.9319 15.9932 10.4633 21.7208 4.95325 21.7208C-0.556762 21.7208 -5.02539 15.9932 -5.02539 8.92887H-0.611162V4.78665H12.0176V-0.117188C13.8206 2.19873 14.9397 5.4006 14.9397 8.92887H14.9319Z" fill="#A472C1"/>
<path d="M14.7691 8.89043C14.7691 15.8615 10.3549 21.5192 4.91485 21.5192C-0.525225 21.5192 -4.93945 15.8615 -4.93945 8.89043H-0.618482V4.78706H11.8781V-0.0390625C13.6578 2.24577 14.7614 5.40101 14.7614 8.89043H14.7691Z" fill="#A574C2"/>
<path d="M14.5987 8.84416C14.5987 15.7297 10.2466 21.3097 4.87648 21.3097C-0.493645 21.3097 -4.8457 15.7297 -4.8457 8.84416H-0.61799V4.78743H11.7543V0.03125C13.5107 2.28499 14.5987 5.40138 14.5987 8.84416Z" fill="#A775C4"/>
<path d="M14.436 8.80572C14.436 15.598 10.1383 21.1003 4.84593 21.1003C-0.446485 21.1003 -4.74414 15.598 -4.74414 8.80572H-0.609688V4.78784H11.6305V0.109375C13.3635 2.33203 14.4438 5.40956 14.4438 8.80572H14.436Z" fill="#A976C6"/>
<path d="M14.2732 8.76727C14.2732 15.4663 10.0378 20.8986 4.80752 20.8986C-0.422718 20.8986 -4.6582 15.4663 -4.6582 8.76727H-0.617006V4.78825H11.4988V0.1875C13.2085 2.37907 14.2732 5.41774 14.2732 8.76727Z" fill="#AA78C7"/>
<path d="M14.1008 8.72882C14.1008 15.3346 9.91973 20.697 4.7672 20.697C-0.385322 20.697 -4.56641 15.3424 -4.56641 8.72882H-0.618468V4.78866H11.373V0.265625C13.0594 2.43388 14.1086 5.41815 14.1086 8.72882H14.1008Z" fill="#AC79C9"/>
<path d="M13.9381 8.6826C13.9381 15.1951 9.81923 20.4798 4.73665 20.4798C-0.345932 20.4798 -4.46484 15.1951 -4.46484 8.6826H-0.610165V4.78907H11.2492V0.34375C12.9123 2.48092 13.9459 5.42633 13.9459 8.69038L13.9381 8.6826Z" fill="#AD7BCA"/>
<path d="M13.7754 8.64416C13.7754 15.0712 9.71088 20.2781 4.69824 20.2781C-0.314394 20.2781 -4.37891 15.0712 -4.37891 8.64416H-0.617485V4.78948H11.1175V0.421875C12.7573 2.52796 13.7754 5.43451 13.7754 8.64416Z" fill="#AF7CCC"/>
<path d="M13.6108 8.60571C13.6108 14.9395 9.60843 20.0687 4.66573 20.0687C-0.276959 20.0687 -4.2793 14.9317 -4.2793 8.60571H-0.611136V4.78989H10.9918V0.5C12.6082 2.575 13.6108 5.44269 13.6108 8.60571Z" fill="#B17ECE"/>
<path d="M13.4403 8.56331C13.4403 14.8039 9.49235 19.8631 4.62737 19.8631C-0.237609 19.8631 -4.18555 14.8039 -4.18555 8.56331H-0.610644V4.78635H10.8679V0.566406C12.4611 2.61032 13.4481 5.43916 13.4481 8.55554L13.4403 8.56331Z" fill="#B27FCF"/>
<path d="M13.2775 8.51709C13.2775 14.6644 9.39177 19.6537 4.58896 19.6537C-0.213843 19.6537 -4.09961 14.6721 -4.09961 8.51709H-0.617963V4.78676H10.7362V0.644531C12.3061 2.65736 13.2775 5.43957 13.2775 8.51709Z" fill="#B481D1"/>
<path d="M13.1149 8.47865C13.1149 14.5327 9.2835 19.4443 4.55841 19.4443C-0.166682 19.4443 -3.99805 14.5327 -3.99805 8.47865H-0.61743V4.78717H10.6047V0.722656C12.1512 2.7044 13.1149 5.44775 13.1149 8.47865Z" fill="#B682D3"/>
<path d="M12.9424 8.4402C12.9424 14.4087 9.16547 19.2426 4.51809 19.2426C-0.129286 19.2426 -3.90625 14.4087 -3.90625 8.4402H-0.618893V4.78758H10.4789V0.800781C12.0021 2.75921 12.9502 5.45593 12.9502 8.4402H12.9424Z" fill="#B783D4"/>
<path d="M12.7797 8.40175C12.7797 14.277 9.06489 19.041 4.47968 19.041C-0.105519 19.041 -3.82031 14.277 -3.82031 8.40175H-0.626211V4.78799H10.3394V0.878906C11.8393 2.80625 12.7719 5.46411 12.7719 8.40175H12.7797Z" fill="#B985D6"/>
<path d="M12.617 8.35553C12.617 14.1375 8.95662 18.8238 4.44913 18.8238C-0.0583587 18.8238 -3.71875 14.1375 -3.71875 8.35553H-0.617909V4.7884H10.2234V0.957031C11.7 2.85328 12.617 5.47229 12.617 8.3633V8.35553Z" fill="#BB87D8"/>
<path d="M12.4543 8.31704C12.4543 14.0058 8.85612 18.6221 4.41858 18.6221C-0.0189683 18.6221 -3.61719 14.0058 -3.61719 8.31704H-0.609606V4.78877H10.1073V1.02734C11.5606 2.89251 12.4621 5.46489 12.4621 8.31704H12.4543Z" fill="#BD88DA"/>
<path d="M12.2838 8.27859C12.2838 13.8819 8.73996 18.4204 4.37235 18.4204C0.00475454 18.4204 -3.53906 13.8819 -3.53906 8.27859H-0.624737V4.78918H9.96009V1.10547C11.39 2.93955 12.276 5.47307 12.276 8.27082L12.2838 8.27859Z" fill="#BE8ADB"/>
<path d="M12.1192 8.23237C12.1192 13.7424 8.63751 18.2032 4.33985 18.2032C0.0421929 18.2032 -3.43945 13.7346 -3.43945 8.23237H-0.618388V4.78959H9.84209V1.18359C11.2487 2.98659 12.1192 5.48125 12.1192 8.23237Z" fill="#C08BDD"/>
<path d="M11.9565 8.19002C11.9565 13.6068 8.52924 17.9977 4.3093 17.9977C0.089355 17.9977 -3.33789 13.6068 -3.33789 8.19002H-0.610085V4.78609H9.71828V1.25781C11.1016 3.02972 11.9565 5.48553 11.9565 8.19002Z" fill="#C28DDF"/>
<path d="M11.7859 8.15157C11.7859 13.4751 8.42085 17.796 4.26308 17.796C0.105306 17.796 -3.25977 13.4828 -3.25977 8.15157H-0.625216V4.7865H9.5788V1.33594C10.9388 3.07676 11.7781 5.49371 11.7781 8.15157H11.7859Z" fill="#C48EE1"/>
<path d="M11.6213 8.11312C11.6213 13.3434 8.31063 17.5866 4.23057 17.5866C0.150518 17.5866 -3.16016 13.3434 -3.16016 8.11312H-0.618865V4.78691H9.46081V1.41406C10.7975 3.13157 11.6291 5.49412 11.6291 8.11312H11.6213Z" fill="#C590E2"/>
<path d="M11.4586 8.06686C11.4586 13.2116 8.21013 17.3772 4.20002 17.3772C0.189907 17.3772 -3.05859 13.2116 -3.05859 8.06686H-0.610563V4.78728H9.337V1.48438C10.6504 3.1708 11.4664 5.49448 11.4664 8.06686H11.4586Z" fill="#C791E4"/>
<path d="M11.2959 8.02841C11.2959 13.0799 8.10178 17.1677 4.16161 17.1677C0.221445 17.1677 -2.97266 13.0721 -2.97266 8.02841H-0.617882V4.78769H9.20533V1.5625C10.4954 3.21784 11.2959 5.50267 11.2959 8.02841Z" fill="#C993E6"/>
<path d="M11.1254 7.98997C11.1254 12.9482 7.99346 16.9661 4.12324 16.9661C0.25302 16.9661 -2.87891 12.9482 -2.87891 7.98997H-0.617391V4.7881H9.07371V1.64062C10.3405 3.26487 11.1254 5.51085 11.1254 7.98997Z" fill="#CB95E8"/>
<path d="M10.9608 7.95152C10.9608 12.8165 7.88324 16.7644 4.09074 16.7644C0.298229 16.7644 -2.7793 12.8165 -2.7793 7.95152H-0.611042V4.78851H8.95571V1.71875C10.1992 3.31191 10.9685 5.51903 10.9685 7.95152H10.9608Z" fill="#CD96EA"/>
<path d="M10.798 7.9053C10.798 12.677 7.77489 16.5472 4.05233 16.5472C0.329764 16.5472 -2.69336 12.677 -2.69336 7.9053H-0.618362V4.78891H8.82405V1.79688C10.0442 3.35895 10.798 5.51944 10.798 7.91307V7.9053Z" fill="#CF98EC"/>
<path d="M4.01396 16.3442C7.66654 16.3442 10.6275 12.5481 10.6275 7.86546C10.6275 3.18278 7.66654 -0.613281 4.01396 -0.613281C0.361387 -0.613281 -2.59961 3.18278 -2.59961 7.86546C-2.59961 12.5481 0.361387 16.3442 4.01396 16.3442Z" fill="#D09AED"/>
<path d="M3.98341 16.1428C7.56302 16.1428 10.4649 12.4198 10.4649 7.82726C10.4649 3.23471 7.56302 -0.488281 3.98341 -0.488281C0.403798 -0.488281 -2.49805 3.23471 -2.49805 7.82726C-2.49805 12.4198 0.403798 16.1428 3.98341 16.1428Z" fill="#D29BEF"/>
<path d="M3.94305 15.9337C7.45399 15.9337 10.3002 12.2872 10.3002 7.7891C10.3002 3.29098 7.45399 -0.355469 3.94305 -0.355469C0.432114 -0.355469 -2.41406 3.29098 -2.41406 7.7891C-2.41406 12.2872 0.432114 15.9337 3.94305 15.9337Z" fill="#D49DF1"/>
<path d="M3.90468 15.7205C7.34265 15.7205 10.1297 12.1472 10.1297 7.73918C10.1297 3.33119 7.34265 -0.242188 3.90468 -0.242188C0.466712 -0.242188 -2.32031 3.33119 -2.32031 7.73918C-2.32031 12.1472 0.466712 15.7205 3.90468 15.7205Z" fill="#D69FF3"/>
<path d="M3.87413 15.5191C7.23914 15.5191 9.96701 12.0188 9.96701 7.70097C9.96701 3.38312 7.23914 -0.117188 3.87413 -0.117188C0.509125 -0.117188 -2.21875 3.38312 -2.21875 7.70097C-2.21875 12.0188 0.509125 15.5191 3.87413 15.5191Z" fill="#D8A0F5"/>
<path d="M3.83572 15.31C7.13206 15.31 9.80426 11.8862 9.80426 7.66281C9.80426 3.43939 7.13206 0.015625 3.83572 0.015625C0.539392 0.015625 -2.13281 3.43939 -2.13281 7.66281C-2.13281 11.8862 0.539392 15.31 3.83572 15.31Z" fill="#DAA2F7"/>
<path d="M3.83447 15.1477C7.05783 15.1477 9.67089 11.797 9.67089 7.66367C9.67089 3.53038 7.05783 0.179688 3.83447 0.179688C0.6111 0.179688 -2.00195 3.53038 -2.00195 7.66367C-2.00195 11.797 0.6111 15.1477 3.83447 15.1477Z" fill="#DAA2F7"/>
<path d="M2.65441 11.0361C4.68886 11.0361 6.33811 8.92062 6.33811 6.31103C6.33811 3.70143 4.68886 1.58594 2.65441 1.58594C0.619953 1.58594 -1.0293 3.70143 -1.0293 6.31103C-1.0293 8.92062 0.619953 11.0361 2.65441 11.0361Z" fill="#DAA2F7"/>
</g>
<mask id="mask1_1824_8616" style="mask-type:luminance" maskUnits="userSpaceOnUse" x="0" y="0" width="18" height="11">
<path d="M17.7144 5.82341C17.6833 5.86227 17.6367 5.90112 17.5823 5.93221L9.29008 10.7272C8.96368 10.9215 8.45853 10.9448 8.17099 10.7739L0.352824 6.25862C0.352824 6.25862 0.313966 6.2353 0.298423 6.21976C0.0730487 6.05656 0.127448 5.79232 0.430538 5.61358L8.72276 0.818543C9.04917 0.624255 9.55432 0.608712 9.84186 0.771914L17.66 5.28717C17.9009 5.41929 17.9087 5.64466 17.7144 5.82341Z" fill="white"/>
</mask>
<g mask="url(#mask1_1824_8616)">
<path d="M17.9079 0.609375H0.0722656V10.9455H17.9079V0.609375Z" fill="#492266"/>
<path d="M10.4937 11.7225H-0.705078V-0.167969H18.6849V11.7225H10.4937Z" fill="#492266"/>
<path d="M10.4548 11.7225H-0.705078V-0.167969H18.6849V11.7225H10.4548Z" fill="#4A2367"/>
<path d="M10.416 11.7225H-0.705078V-0.167969H18.6849V11.7225H10.416Z" fill="#4C2469"/>
<path d="M10.3771 11.7225H-0.705078V-0.167969H18.6849V11.7225H10.3771Z" fill="#4D256A"/>
<path d="M10.3383 11.7225H-0.705078V-0.167969H18.6849V11.7225H10.3383Z" fill="#4E276B"/>
<path d="M10.2994 11.7225H-0.705078V-0.167969H18.6849V11.7225H10.2994Z" fill="#4F286C"/>
<path d="M10.2606 11.7225H-0.705078V-0.167969H18.6849V11.7225H10.2606Z" fill="#51296E"/>
<path d="M10.2217 11.7225H-0.705078V-0.167969H18.6849V11.7225H10.2217Z" fill="#522A6F"/>
<path d="M10.1828 11.7225H-0.705078V-0.167969H18.6849V11.7225H10.1828Z" fill="#532B70"/>
<path d="M10.144 11.7225H-0.705078V-0.167969H18.6849V11.7225H10.144Z" fill="#552C72"/>
<path d="M10.1051 11.7225H-0.705078V-0.167969H18.6849V11.7225H10.1051Z" fill="#562D73"/>
<path d="M10.0663 11.7225H-0.705078V-0.167969H18.6849V11.7225H10.0663Z" fill="#572E74"/>
<path d="M10.0274 11.7225H-0.705078V-0.167969H18.6849V11.7225H10.0274Z" fill="#583075"/>
<path d="M9.98855 11.7225H-0.705078V-0.167969H18.6849V11.7225H9.98855Z" fill="#5A3177"/>
<path d="M9.94969 11.7225H-0.705078V-0.167969H18.6849V11.7225H9.94969Z" fill="#5B3278"/>
<path d="M9.91083 11.7225H-0.705078V-0.167969H18.6849V11.7225H9.91083Z" fill="#5C3379"/>
<path d="M9.87198 11.7225H-0.705078V-0.167969H18.6849V11.7225H9.87198Z" fill="#5D347A"/>
<path d="M9.83312 11.7225H-0.705078V-0.167969H18.6849V11.7225H9.83312Z" fill="#5F357C"/>
<path d="M9.79426 11.7225H-0.705078V-0.167969H18.6849V11.7225H9.79426Z" fill="#60367D"/>
<path d="M9.7554 11.7225H-0.705078V-0.167969H18.6849V11.7225H9.7554Z" fill="#61377E"/>
<path d="M9.71655 11.7225H-0.705078V-0.167969H18.6849V11.7225H9.71655Z" fill="#62387F"/>
<path d="M9.67769 11.7225H-0.705078V-0.167969H18.6849V11.7225H9.67769Z" fill="#643981"/>
<path d="M9.63883 11.7225H-0.705078V-0.167969H18.6849V11.7225H9.63883Z" fill="#653B82"/>
<path d="M9.59997 11.7225H-0.705078V-0.167969H18.6849V11.7225H9.59997Z" fill="#663C83"/>
<path d="M9.56112 11.7225H-0.705078V-0.167969H18.6849V11.7225H9.56112Z" fill="#673D84"/>
<path d="M9.5143 11.7231H-0.705268V-0.128508H-3.70508C-2.74141 -0.641429 -1.70779 -1.11549 -0.604237 -1.53516V-0.167367H18.6925V11.7231H9.52207H9.5143Z" fill="#693E86"/>
<path d="M9.4756 11.7235H-0.705103V-0.0503438H-3.67383C-2.71793 -0.563265 -1.68432 -1.02956 -0.596303 -1.44922V-0.174688H18.6849V11.7158H9.4756V11.7235Z" fill="#6A3F87"/>
<path d="M9.43691 11.724H-0.70494V0.0356346H-3.64258C-2.69445 -0.469515 -1.66861 -0.935806 -0.580596 -1.35547V-0.174197H18.685V11.7162H9.43691V11.724Z" fill="#6B4088"/>
<path d="M9.39822 11.7245H-0.704776V0.121614H-3.61133C-2.6632 -0.383535 -1.64513 -0.849828 -0.564888 -1.26172V-0.173705H18.6852V11.7167H9.39822V11.7245Z" fill="#6C4189"/>
<path d="M9.35952 11.725H-0.704612V0.207591H-3.58008C-2.63972 -0.297558 -1.62942 -0.756078 -0.549181 -1.16797V-0.173214H18.6854V11.7172H9.35952V11.725Z" fill="#6D428A"/>
<path d="M9.32094 11.724H-0.704337V1.90852H-6.12109C-3.02025 -0.391853 1.44838 -2.15599 6.55427 -2.84766V-0.166479H18.6856V11.724H9.32094Z" fill="#6F438C"/>
<path d="M9.28233 11.7245H-0.704091V1.98677H-6.07422C-2.99669 -0.298061 1.4564 -2.05443 6.53121 -2.74609V-0.165946H18.6859V11.7245H9.28233Z" fill="#70448D"/>
<path d="M9.24371 11.725H-0.703846V2.0572H-6.02734C-2.96536 -0.212083 1.45664 -1.96068 6.50813 -2.65234V-0.173226H18.6861V11.7172H9.24371V11.725Z" fill="#71458E"/>
<path d="M9.2051 11.7256H-0.703599V2.13549H-5.98047C-2.93403 -0.126024 1.46466 -1.86685 6.48507 -2.54297V-0.164881H18.6864V11.7256H9.2051Z" fill="#72468F"/>
<path d="M9.16454 11.7222H-0.705306V2.20984H-5.93555C-2.90465 -0.0361366 1.47072 -1.76919 6.46782 -2.44531V-0.168254H18.6924V11.7222H9.17231H9.16454Z" fill="#734790"/>
<path d="M9.12589 11.7227H-0.705101V2.28808H-5.89648C-2.88113 0.049881 1.46316 -1.66763 6.43694 -2.34375V-0.167722H18.6849V11.7227H9.12589Z" fill="#754992"/>
<path d="M9.08728 11.7233H-0.704856V2.35856H-5.84961C-2.8498 0.135901 1.47117 -1.57384 6.41387 -2.24219V-0.167189H18.6851V11.7233H9.08728Z" fill="#764A93"/>
<path d="M9.04866 11.7238H-0.70461V2.43681H-5.80273C-2.82624 0.22969 1.47919 -1.47227 6.3908 -2.14062V-0.166657H18.6854V11.7238H9.04866Z" fill="#774B94"/>
<path d="M9.01005 11.7243H-0.704364V2.51506H-5.75586C-2.79491 0.315712 1.47944 -1.37071 6.36773 -2.03906V-0.173895H18.6856V11.7165H9.01005V11.7243Z" fill="#784C95"/>
<path d="M8.97144 11.7249H-0.704119V2.59334H-5.70898C-2.76357 0.409544 1.48745 -1.26911 6.34466 -1.92969V-0.165549H18.6859V11.7249H8.97144Z" fill="#794D96"/>
<path d="M8.93283 11.7254H-0.703873V2.67159H-5.66211C-2.73224 0.503335 1.49547 -1.16754 6.32159 -1.82812V-0.165018H18.6861V11.7254H8.93283Z" fill="#7B4E98"/>
<path d="M8.89418 11.726H-0.703668V2.74207H-5.62305C-2.70872 0.581584 1.4879 -1.08153 6.29071 -1.72656V-0.164485H18.6785V11.726H8.8864H8.89418Z" fill="#7C4F99"/>
<path d="M8.85361 11.7226H-0.705376V2.81641H-5.57812C-2.68712 0.671467 1.49397 -0.983869 6.26569 -1.62891V-0.167859H18.6846V11.7226H8.85361Z" fill="#7D509A"/>
<path d="M8.815 11.7231H-0.705129V2.89466H-5.53125C-2.65578 0.757485 1.50199 -0.882307 6.24262 -1.52734V-0.167326H18.6848V11.7231H8.815Z" fill="#7E519B"/>
<path d="M8.77639 11.7237H-0.704884V2.97295H-5.48438C-2.62445 0.85132 1.50223 -0.780703 6.21955 -1.41797V-0.15898H18.6695V-0.298868C20.3327 0.346169 21.716 1.1855 22.7341 2.19579H18.6773V11.7315H8.76861L8.77639 11.7237Z" fill="#7F529C"/>
<path d="M8.73778 11.7242H-0.704637V3.04338H-5.4375C-2.59312 0.937298 1.51025 -0.686953 6.19648 -1.32422V-0.166261H18.5765V-0.212889C20.2241 0.424376 21.6074 1.2637 22.6177 2.26623H18.6853V11.7242H8.73778Z" fill="#80539D"/>
<path d="M8.69916 11.726H-0.704392V3.12294H-5.39062C-2.56179 1.02463 1.51827 -0.584077 6.17342 -1.22134C10.8363 -1.85084 15.1962 -1.38454 18.4835 -0.117785C20.1233 0.51948 21.4989 1.35103 22.5014 2.34579H18.6856V11.726H8.69916Z" fill="#82549F"/>
<path d="M8.66051 11.7229H-0.704187V3.19754H-5.35156C-2.53827 1.11477 1.5107 -0.486171 6.1503 -1.11566C10.7821 -1.74516 15.1187 -1.27887 18.3827 -0.0198791C20.0147 0.609615 21.3747 1.44117 22.3773 2.42815H18.6858V11.7229H8.66051Z" fill="#8355A0"/>
<path d="M8.6219 11.7258H-0.70394V3.27816H-5.30469C-2.51471 1.20316 1.51872 -0.390004 6.12724 -1.01173C15.3365 -2.26294 23.3645 0.837899 24.0484 5.90494H18.686V11.7258H8.6219Z" fill="#8456A1"/>
<path d="M8.58133 11.7248H-0.705649V3.34709H-5.25977C-2.48533 1.28763 1.52478 -0.297758 6.10221 -0.91948C15.2571 -2.16293 23.2307 0.914602 23.9146 5.95833H18.6843V11.717H8.58133V11.7248Z" fill="#8557A2"/>
<path d="M8.54272 11.7234H-0.705403V3.42343H-5.21289C-2.454 1.37952 1.52503 -0.198104 6.07914 -0.812055C15.1796 -2.04773 23.1066 1.01426 23.7827 6.02689H18.6846V11.7312H8.54272V11.7234Z" fill="#8658A3"/>
<path d="M8.50411 11.7225H-0.705156V3.5002H-5.16602C-2.42266 1.46406 1.53305 -0.0980192 6.05608 -0.71197C15.1021 -1.93987 22.9825 1.0988 23.6508 6.08035H18.6848V11.7225H8.50411Z" fill="#8759A4"/>
<path d="M8.46554 11.725H-0.697096V3.5804H-5.11133C-2.38352 1.55981 1.54887 0.00550014 6.04082 -0.608451C15.0325 -1.82858 22.8584 1.19454 23.5345 6.14501H18.7006V11.725H8.47331H8.46554Z" fill="#895AA6"/>
<path d="M8.42693 11.7236H-0.696852V3.64896H-5.06445C-2.35996 1.6439 1.54912 0.0973679 6.01775 -0.508812C14.9472 -1.72117 22.7343 1.28641 23.4027 6.19802H18.7009V11.7158H8.4347L8.42693 11.7236Z" fill="#8A5BA7"/>
<path d="M8.38827 11.7226H-0.696646V3.7257H-5.02539C-2.33644 1.72842 1.54932 0.197426 5.98687 -0.408753C14.862 -1.61334 22.5946 1.37093 23.263 6.25922H18.6933V11.7226H8.38827Z" fill="#8B5CA8"/>
<path d="M8.34185 11.7251H-0.704214V3.80591H-4.98633C-2.31292 1.82417 1.54953 0.293174 5.95599 -0.305234C14.7767 -1.50205 22.4627 1.46667 23.1233 6.32388H18.6858V11.7251H8.34185Z" fill="#8C5DA9"/>
<path d="M8.30324 11.7242H-0.703969V3.88272H-4.93945C-2.28159 1.90875 1.54978 0.3933 5.93292 -0.197337C14.6992 -1.38638 22.3308 1.55903 22.9914 6.38515H18.686V11.7242H8.30324Z" fill="#8D5EAA"/>
<path d="M8.26462 11.7228H-0.703723V3.95902H-4.89258C-2.25026 2.00059 1.55779 0.492913 5.90985 -0.0977237C14.6217 -1.279 22.2068 1.65087 22.8596 6.44591H18.6862V11.7305H8.26462V11.7228Z" fill="#8E5FAB"/>
<path d="M8.22406 11.7257H-0.70543V4.03188H-4.84766C-2.22088 2.089 1.56386 0.589091 5.88483 -0.00154525C14.5345 -1.17505 22.0729 1.73151 22.7257 6.49545H18.6845V11.7179H8.22406V11.7257Z" fill="#8F60AC"/>
<path d="M8.18545 11.7243H-0.705185V4.10822H-4.80078C-2.19732 2.17311 1.5641 0.688745 5.86176 0.10588C14.4571 -1.05985 21.9488 1.83116 22.5939 6.56402H18.6926V11.7243H8.19322H8.18545Z" fill="#9061AD"/>
<path d="M8.14679 11.7233H-0.70498V4.18496H-4.76172C-2.1738 2.26539 1.56431 0.788804 5.83088 0.205939C14.3718 -0.95202 21.8092 1.91568 22.4542 6.62523H18.685V11.7233H8.14679Z" fill="#9262AF"/>
<path d="M8.10818 11.7259H-0.704733V4.26523H-4.71484C-2.14247 2.35344 1.57232 0.89239 5.81558 0.317297C14.3021 -0.83289 21.6928 2.01926 22.3301 6.68995C22.6487 9.02918 21.211 11.3762 18.6386 13.2802V11.7337H8.10818V11.7259Z" fill="#9363B0"/>
<path d="M8.06957 11.7244H-0.704489V4.33372H-4.66797C-2.11114 2.43747 1.57257 0.97642 5.79251 0.409098C14.2246 -0.733317 21.5609 2.10329 22.1982 6.7429C22.5168 9.06658 21.0869 11.398 18.5378 13.2943V11.7244H8.07734H8.06957Z" fill="#9464B1"/>
<path d="M8.03096 11.7235H-0.704243V4.41049H-4.62109C-2.0798 2.52978 1.58059 1.0765 5.76944 0.509182C14.1394 -0.625461 21.4369 2.18783 22.0663 6.79635C22.3772 9.10449 20.9628 11.4204 18.4293 13.3011V11.7157H8.03873L8.03096 11.7235Z" fill="#9565B2"/>
<path d="M7.99235 11.726H-0.703996V4.49074H-4.57422C-2.05624 2.6178 1.58861 1.18006 5.74638 0.620514C14.0619 -0.506358 21.3128 2.29139 21.9345 6.86882C22.2453 9.16143 20.8387 11.4618 18.3207 13.327V11.726H8.00012H7.99235Z" fill="#9666B3"/>
<path d="M7.95374 11.7251H-0.70375V4.56748H-4.52734C-2.02491 2.71009 1.58885 1.28012 5.72331 0.720572C13.9844 -0.398528 21.1809 2.37591 21.8026 6.93003C22.1135 9.20709 20.7146 11.4919 18.2122 13.3493V11.7328H7.96151L7.95374 11.7251Z" fill="#9767B4"/>
<path d="M7.91508 11.7236H-0.703546V4.63599H-4.48828C-2.00139 2.79414 1.58906 1.37195 5.69242 0.8124C13.8992 -0.298929 21.049 2.45996 21.6629 6.97522C21.966 9.23674 20.5827 11.506 18.0958 13.3479V11.7159H7.91508V11.7236Z" fill="#9868B5"/>
<path d="M7.87452 11.7227H-0.705253V4.71278H-4.44336C-1.97201 2.8787 1.59512 1.47205 5.6674 0.92027C13.8197 -0.183287 20.9151 2.55229 21.5291 7.04424C21.8322 9.29021 20.4566 11.544 17.9853 13.378V11.7305H7.87452V11.7227Z" fill="#9969B6"/>
<path d="M7.83591 11.7252H-0.705007V4.79301H-4.39648C-1.94068 2.97447 1.59537 1.57559 5.64434 1.02382C13.7345 -0.0719698 20.791 2.64806 21.3972 7.10115C22.0034 11.5542 15.9338 16.0617 7.83591 17.1575V11.7252Z" fill="#9A6AB7"/>
<path d="M7.79729 11.7242H-0.704762V4.86975H-4.34961C-1.90935 3.05899 1.60338 1.67565 5.62126 1.12387C13.657 0.0358596 20.6592 2.73258 21.2654 7.16235C21.8638 11.5844 15.8408 16.0608 7.79729 17.1488V11.7242Z" fill="#9B6BB8"/>
<path d="M7.75868 11.7229H-0.704516V4.9383H-4.30273C-1.88579 3.14308 1.6114 1.75975 5.5982 1.22351C13.5796 0.143271 20.5351 2.82445 21.1335 7.21536C21.7319 11.6063 15.74 16.0516 7.75868 17.1318V11.7151V11.7229Z" fill="#9C6CB9"/>
<path d="M7.72007 11.7253H-0.704269V5.01851H-4.25586C-1.85446 3.23883 1.61165 1.86327 5.57513 1.32703C13.5021 0.254562 20.4032 2.9202 21.0016 7.28003C21.5923 11.6399 15.647 16.0541 7.72007 17.1266V11.7176V11.7253Z" fill="#9E6DBB"/>
<path d="M7.68142 11.7244H-0.704066V5.09525H-4.2168C-1.83094 3.32334 1.61185 1.96333 5.54425 1.42709C13.4168 0.362392 20.2713 3.00471 20.8619 7.34123C21.4526 11.6777 15.5462 16.0531 7.67364 17.1178V11.7244H7.68142Z" fill="#9F6EBC"/>
<path d="M7.64281 11.723H-0.70382V5.17162H-4.16992C-1.7996 3.41525 1.61987 2.06301 5.52118 1.53454C13.3316 0.477616 20.1394 3.10439 20.7301 7.40205C21.3129 11.7075 15.4532 16.0518 7.63503 17.1087V11.723H7.64281Z" fill="#A06EBD"/>
<path d="M7.60224 11.722H-0.705527V5.24055H-4.125C-1.77023 3.49973 1.61816 2.15525 5.50393 1.62679C13.2599 0.577632 20.0211 3.1811 20.604 7.45544C21.1869 11.7298 15.366 16.043 7.61001 17.0921V11.7142L7.60224 11.722Z" fill="#A16FBE"/>
<path d="M7.56363 11.7245H-0.70528V5.32078H-4.07812C-1.74667 3.58773 1.62618 2.2588 5.48086 1.73034C13.1824 0.68895 19.8971 3.27687 20.4721 7.51236C21.0472 11.7556 15.273 16.0377 7.5714 17.0869V11.7168L7.56363 11.7245Z" fill="#A270BF"/>
<path d="M7.52502 11.7261H-0.705035V5.40009H-4.03125C-1.71533 3.68258 1.6342 2.36142 5.45779 1.84073C13.105 0.799347 19.7652 3.37172 20.3403 7.58389C20.9154 11.7961 15.18 16.0471 7.53279 17.0885V11.7339L7.52502 11.7261Z" fill="#A371C0"/>
<path d="M7.48641 11.7247H-0.704789V5.47639H-3.98438C-1.684 3.76666 1.63444 2.45327 5.43472 1.94034C13.0275 0.906731 19.6411 3.46356 20.2084 7.64465C20.7757 11.8257 15.0792 16.0457 7.49418 17.0793V11.7325L7.48641 11.7247Z" fill="#A472C1"/>
<path d="M7.44775 11.7238H-0.704584V5.55316H-3.94531C-1.66048 3.85897 1.63465 2.55335 5.40384 2.04043C12.9345 1.01459 19.5014 3.54811 20.0687 7.6981C20.6283 11.8481 14.9784 16.037 7.44775 17.0628V11.7238Z" fill="#A573C2"/>
<path d="M7.40914 11.7223H-0.704339V5.62169H-3.89844C-1.62915 3.94304 1.64266 2.64519 5.38077 2.14004C12.857 1.12197 19.3773 3.63995 19.9368 7.75886C20.4964 11.8778 14.8854 16.0355 7.40914 17.0536V11.7223Z" fill="#A674C3"/>
<path d="M7.37053 11.7249H-0.704093V5.70192H-3.85156C-1.59782 4.03104 1.64291 2.74874 5.3577 2.24359C12.7795 1.23329 19.2454 3.73572 19.805 7.81578C20.3568 11.9036 14.7923 16.0303 7.37053 17.0406V11.7171V11.7249Z" fill="#A775C4"/>
<path d="M7.33192 11.7239H-0.703846V5.7787H-3.80469C-1.57426 4.12337 1.65093 2.84884 5.33463 2.35146C12.702 1.34893 19.1213 3.82805 19.6731 7.88479C20.2249 11.9415 14.6993 16.0371 7.33192 17.0397V11.7317V11.7239Z" fill="#A876C5"/>
<path d="M7.29139 11.7225H-0.69774V5.855H-3.75195C-1.53707 4.20744 1.6648 2.94845 5.31742 2.45107C12.6304 1.45632 18.9953 3.91989 19.5471 7.94554C20.0911 11.9712 14.6122 16.0357 7.29916 17.0305V11.7303L7.29139 11.7225Z" fill="#A977C6"/>
<path d="M7.25278 11.7254H-0.697495V5.92787H-3.70508C-1.50573 4.29584 1.66505 3.04463 5.29436 2.54725C12.553 1.56027 18.8712 4.00053 19.4152 7.99509C19.9592 11.9897 14.5192 16.0231 7.26055 17.0101V11.7177L7.25278 11.7254Z" fill="#AA78C7"/>
<path d="M7.21413 11.7241H-0.697289V6.0042H-3.66602C-1.48222 4.38772 1.66525 3.13651 5.26347 2.65468C12.4599 1.67546 18.7315 4.10018 19.2755 8.06366C19.8118 12.0271 14.4106 16.0295 7.21413 17.0087V11.7241Z" fill="#AB79C8"/>
<path d="M7.16771 11.7231H-0.704857V6.08098H-3.62695C-1.4587 4.47227 1.66546 3.2366 5.23259 2.75476C12.3746 1.78332 18.5996 4.18472 19.1359 8.11712C19.6721 12.0495 14.3097 16.0208 7.16771 16.9922V11.7231Z" fill="#AC79C9"/>
<path d="M7.12909 11.7256H-0.704612V6.16118H-3.58008C-1.43514 4.56802 1.66571 3.34011 5.20952 2.85828C12.2972 1.89461 18.4678 4.28047 19.004 8.18178C19.5325 12.0831 14.2167 16.0233 7.12909 16.9869V11.7256Z" fill="#AD7ACA"/>
<path d="M7.09048 11.7242H-0.704366V6.22971H-3.5332C-1.4038 4.65209 1.67372 3.43196 5.19423 2.95789C12.2275 2.00199 18.3514 4.37231 18.8799 8.24253C19.4084 12.1128 14.1315 16.0218 7.09825 16.9777V11.7242H7.09048Z" fill="#AE7BCB"/>
<path d="M7.05187 11.7232H-0.70412V6.30648H-3.48633C-1.37247 4.73663 1.68174 3.53204 5.17116 3.05798C12.15 2.10985 18.2273 4.45685 18.748 8.29599C19.2687 12.1351 14.0385 16.0209 7.05964 16.9612V11.7155L7.05187 11.7232Z" fill="#AF7CCC"/>
<path d="M7.01326 11.7257H-0.703875V6.38668H-3.43945C-1.34114 4.83238 1.68976 3.63556 5.14809 3.1615C12.0648 2.22114 18.0955 4.5526 18.6162 8.36065C19.1368 12.1687 13.9455 16.0234 7.02103 16.956V11.7257H7.01326Z" fill="#B07DCD"/>
<path d="M6.9746 11.7248H-0.70367V6.46349H-3.40039C-1.31762 4.91696 1.68219 3.73569 5.11721 3.26939C11.9795 2.33681 17.9635 4.64495 18.4765 8.42192C18.9894 12.1989 13.8446 16.0225 6.9746 16.9473V11.7248Z" fill="#B17ECE"/>
<path d="M6.93404 11.7234H-0.705377V6.53198H-3.35547C-1.28824 5.00099 1.68825 3.81971 5.09219 3.36119C11.9 2.43638 17.8297 4.72898 18.3426 8.47486C18.8478 12.2207 13.7419 16.0132 6.93404 16.9303V11.7156V11.7234Z" fill="#B27FCF"/>
<path d="M6.89542 11.7224H-0.705132V6.60872H-3.30859C-1.26468 5.09327 1.69627 3.91977 5.06912 3.46125C11.8226 2.54421 17.7056 4.8135 18.2108 8.53606C18.7159 12.2509 13.6489 16.0123 6.89542 16.9293V11.7224Z" fill="#B37FD0"/>
<path d="M6.85681 11.7249H-0.704886V6.68899H-3.26172C-1.23335 5.18132 1.69652 4.02336 5.04605 3.57261C11.7451 2.66334 17.5738 4.91708 18.0789 8.60079C18.5763 12.2845 13.5559 16.0148 6.85681 16.9241V11.7249Z" fill="#B480D1"/>
<path d="M6.8182 11.724H-0.704639V6.76574H-3.21484C-1.20202 5.27361 1.70454 4.12342 5.02298 3.67267C11.6599 2.77117 17.4497 5.0016 17.947 8.66199C18.4444 12.3224 13.4629 16.0139 6.82598 16.9154V11.7317L6.8182 11.724Z" fill="#B581D2"/>
<path d="M6.77959 11.7226H-0.704393V6.84206H-3.16797C-1.17069 5.3577 1.71255 4.22306 4.99991 3.77231C11.5824 2.87858 17.3178 5.09347 17.8152 8.715C18.3125 12.3365 13.3699 16.0047 6.78736 16.8984V11.7226H6.77959Z" fill="#B682D3"/>
<path d="M6.74098 11.7251H-0.704148V6.9145H-3.12109C-1.13935 5.44568 1.7128 4.31881 4.97684 3.87583C11.5049 2.98987 17.1937 5.18922 17.6833 8.77967C18.1729 12.3701 13.2768 16.0072 6.74875 16.8931V11.7251H6.74098Z" fill="#B783D4"/>
<path d="M6.70233 11.7241H-0.703943V6.99124H-3.08203C-1.12361 5.53796 1.713 4.41886 4.94596 3.97589C11.4196 3.0977 17.054 5.27373 17.5436 8.84086C18.0332 12.408 13.176 16.0062 6.70233 16.8844V11.7241Z" fill="#B884D5"/>
<path d="M6.66371 11.7227H-0.703697V7.06757H-3.03516C-1.09227 5.62206 1.72102 4.5185 4.92289 4.07553C11.3422 3.20511 16.9299 5.3656 17.4117 8.89388C17.8936 12.4222 13.0752 15.9971 6.66371 16.8675V11.7227Z" fill="#B985D6"/>
<path d="M6.62315 11.7257H-0.705405V7.14826H-2.99023C-1.06289 5.7183 1.71931 4.61474 4.89787 4.1873C11.255 3.32466 16.7961 5.46183 17.2779 8.9668C17.752 12.4718 12.9803 16.0078 6.62315 16.8704V11.7335V11.7257Z" fill="#BA85D7"/>
<path d="M6.58454 11.7243H-0.705157V7.21677H-2.94336C-1.03156 5.80235 1.72733 4.70656 4.88258 4.27913C11.1853 3.42426 16.6798 5.54589 17.1538 9.01199C17.6279 12.4859 12.895 15.9908 6.59231 16.8457V11.7165L6.58454 11.7243Z" fill="#BA86D7"/>
<path d="M6.546 11.7233H-0.70484L-5.61645 12.1508C-6.08274 8.70797 -1.39651 5.2341 4.85181 4.387C11.1001 3.5399 16.548 5.63822 17.0142 9.08101C17.4805 12.5238 12.7943 15.9977 6.546 16.8448V11.7233Z" fill="#BB87D8"/>
<path d="M6.50776 11.7258H-0.704226L-5.54589 12.1843C-6.01218 8.77263 -1.36481 5.32985 4.8291 4.49052C11.023 3.65119 16.4165 5.73396 16.8828 9.14567C17.349 12.5574 12.7017 16.0002 6.50776 16.8395V11.7258Z" fill="#BC88D9"/>
<path d="M6.46853 11.7249H-0.70459L-5.47631 12.2145C-5.93483 8.83386 -1.33408 5.42216 4.80543 4.5906C10.9449 3.75905 16.2917 5.81851 16.7503 9.19912C17.2088 12.5797 12.608 15.9914 6.46853 16.823V11.7249Z" fill="#BD89DA"/>
<path d="M6.42931 11.7235H-0.704952L-5.40673 12.2441C-5.85748 8.89462 -1.30336 5.514 4.78175 4.69022C10.8591 3.86644 16.1593 5.91035 16.6178 9.25988C17.0685 12.6094 12.5144 15.99 6.42931 16.8138V11.7235Z" fill="#BE89DB"/>
<path d="M6.39102 11.7221H-0.704388L-5.33622 12.2738C-5.78697 8.9554 -1.26394 5.60587 4.759 4.78986C10.7819 3.97385 16.0355 6.00222 16.4862 9.31289C16.937 12.6236 12.414 15.9809 6.39102 16.7969V11.7143V11.7221Z" fill="#BF8ADC"/>
<path d="M6.3518 11.725H-0.70475L-5.26664 12.3157C-5.70962 9.02832 -1.23321 5.70987 4.73532 4.90163C10.7039 4.09339 15.903 6.09845 16.3538 9.38581C16.7967 12.6732 12.3203 15.9916 6.3518 16.7998V11.725Z" fill="#C08BDD"/>
<path d="M6.31355 11.7236H-0.704137L-5.19608 12.3453C-5.63906 9.08907 -1.20151 5.80172 4.71262 5.00125C10.6268 4.20078 15.7793 6.19029 16.2223 9.44656C16.6652 12.7028 12.2277 15.9902 6.31355 16.7907V11.7314V11.7236Z" fill="#C18CDE"/>
<path d="M6.27433 11.7226H-0.7045L-5.1265 12.3754C-5.56171 9.15026 -1.17079 5.89399 4.68894 5.09352C10.5487 4.30082 15.6468 6.26702 16.0898 9.49221C16.525 12.7174 12.1341 15.9737 6.27433 16.7741V11.7226Z" fill="#C28CDF"/>
<path d="M6.23609 11.7251H-0.703887L-5.05594 12.409C-5.49115 9.21492 -1.13909 5.98974 4.66624 5.19704C10.4716 4.41211 15.5231 6.36277 15.9583 9.55687C16.3935 12.751 12.0414 15.9762 6.23609 16.7688V11.7251Z" fill="#C38DE0"/>
<path d="M6.19687 11.7242H-0.704249L-4.98636 12.4392C-5.4138 9.27615 -1.10837 6.08205 4.64257 5.29712C10.3857 4.51997 15.3906 6.44731 15.8258 9.61033C16.2532 12.7733 11.9478 15.9674 6.19687 16.7524V11.7164V11.7242Z" fill="#C38EE0"/>
<path d="M6.15863 11.7228H-0.703635L-4.91581 12.4766C-5.34324 9.34472 -1.07667 6.1817 4.61987 5.40455C10.3086 4.63517 15.2669 6.54696 15.6943 9.67889C16.1217 12.8108 11.8552 15.9738 6.15863 16.751V11.7306V11.7228Z" fill="#C48FE1"/>
<path d="M6.1194 11.7244H-0.696232L-4.83846 12.5093C-5.25812 9.40845 -1.03041 6.27652 4.60395 5.50714C10.2383 4.73775 15.1499 6.63401 15.5696 9.74262C15.9892 12.8435 11.7615 15.9754 6.12717 16.7448V11.7321L6.1194 11.7244Z" fill="#C590E2"/>
<path d="M6.0792 11.7243H-0.697571L-4.76985 12.5404C-5.18952 9.4706 -1.00066 6.36976 4.57153 5.60815C10.1515 4.85431 15.0087 6.72725 15.4284 9.79701C15.848 12.8668 11.6592 15.9676 6.08698 16.7292V11.7243H6.0792Z" fill="#C690E3"/>
<path d="M6.04193 11.7229H-0.695982L-4.69832 12.57C-5.11021 9.53136 -0.967985 6.46161 4.5498 5.70777C10.0754 4.9617 14.8859 6.8191 15.2978 9.85777C15.7097 12.8964 11.5675 15.9662 6.04971 16.72V11.7229H6.04193Z" fill="#C791E4"/>
<path d="M5.99393 11.7259H-0.705134L-4.63753 12.6041C-5.04942 9.59649 -0.946051 6.55005 4.51734 5.81176C9.98072 5.07346 14.7447 6.90755 15.1566 9.91513C15.5685 12.9227 11.4651 15.9691 6.0017 16.7074V11.7181L5.99393 11.7259Z" fill="#C892E5"/>
<path d="M5.95666 11.7245H-0.703546L-4.566 12.6337C-4.97012 9.65725 -0.913375 6.6419 4.49561 5.91137C9.9046 5.18085 14.6219 6.99939 15.026 9.97588C15.4302 12.9524 11.3734 15.9677 5.96443 16.6983V11.7245H5.95666Z" fill="#C892E5"/>
<path d="M5.91744 11.7235H-0.703907L-4.49641 12.6717C-4.89276 9.72626 -0.882653 6.74199 4.47193 6.01924C9.82652 5.29649 14.4894 7.09171 14.8936 10.0449C15.2899 12.9903 11.2798 15.9746 5.92521 16.6973V11.7313L5.91744 11.7235Z" fill="#C993E6"/>
<path d="M5.87724 11.7261H-0.705249L-4.42781 12.7053C-4.82416 9.79095 -0.852907 6.83777 4.44728 6.12279C9.74746 5.40781 14.3638 7.18749 14.7601 10.1018C15.1565 13.0161 11.1852 15.9693 5.88501 16.6843V11.7261H5.87724Z" fill="#CA94E7"/>
<path d="M5.83993 11.7237H-0.703705L-4.35632 12.734C-4.7449 9.85077 -0.812504 6.92868 4.42551 6.22147C9.67129 5.50648 14.2332 7.27062 14.6295 10.1616C15.0181 13.0449 11.0857 15.967 5.8477 16.6742V11.7237H5.83993Z" fill="#CB95E8"/>
<path d="M5.79972 11.7237H-0.705046L-4.28772 12.7651C-4.6763 9.91293 -0.782762 7.02192 4.40085 6.32249C9.58446 5.62305 14.1075 7.36387 14.4961 10.216C14.8846 13.0682 10.9911 15.9592 5.8075 16.6586V11.7237H5.79972Z" fill="#CC95E9"/>
<path d="M5.76242 11.7253H-0.703496L-4.224 12.7977C-4.6048 9.97666 -0.757898 7.11674 4.37131 6.42507C9.50052 5.72563 13.9692 7.45091 14.3577 10.2797C14.7463 13.1086 10.8916 15.9607 5.76242 16.6524V11.7253Z" fill="#CC96E9"/>
<path d="M5.72222 11.7238H-0.704837L-4.1554 12.8274C-4.5362 10.0296 -0.728152 7.20858 4.34666 6.52468C9.42147 5.83302 13.8435 7.54275 14.2243 10.3405C14.6051 13.1383 10.797 15.9593 5.72222 16.6432V11.7238Z" fill="#CD97EA"/>
<path d="M5.683 11.7225H-0.705199L-4.08581 12.8649C-4.45885 10.0982 -0.697427 7.30826 4.32298 6.63213C9.34339 5.94824 13.711 7.64243 14.0918 10.4013C14.4648 13.168 10.7034 15.958 5.683 16.6341V11.7225Z" fill="#CE97EB"/>
<path d="M5.64476 11.7254H-0.704585L-4.01526 12.8989C-4.38829 10.1633 -0.665725 7.40441 4.30028 6.72829C9.26629 6.05216 13.5873 7.72304 13.9603 10.4586C14.3333 13.1942 10.6108 15.9531 5.64476 16.6292V11.7332V11.7254Z" fill="#CF98EC"/>
<path d="M5.60553 11.724H-0.704948L-3.94568 12.9286C-4.31094 10.2241 -0.635005 7.49628 4.2766 6.82792C9.18044 6.15957 13.4626 7.81491 13.8278 10.5116C14.1931 13.2161 10.5171 15.9439 5.60553 16.6123V11.724Z" fill="#CF99EC"/>
<path d="M5.56724 11.723H-0.704382L-3.87517 12.9587C-4.24043 10.2853 -0.595579 7.58856 4.25386 6.92798C9.10329 6.2674 13.331 7.89942 13.6963 10.5728C14.0615 13.2462 10.4167 15.943 5.56724 16.6035V11.723Z" fill="#D099ED"/>
<path d="M5.52802 11.7255H-0.704746L-3.80559 12.9923C-4.16308 10.3499 -0.564857 7.68431 4.23018 7.0315C9.02521 6.37869 13.2063 7.99517 13.5638 10.6375C13.9213 13.2798 10.3231 15.9454 5.52802 16.5983V11.7255Z" fill="#D19AEE"/>
<path d="M5.48978 11.7246H-0.704131L-3.73503 13.0224C-4.09252 10.4112 -0.533158 7.77662 4.20748 7.13159C8.94811 6.48655 13.0748 8.07972 13.4323 10.691C13.7898 13.3022 10.2304 15.9367 5.48978 16.5818V11.7168V11.7246Z" fill="#D19AEE"/>
<path d="M5.45056 11.7232H-0.704496L-3.66545 13.0599C-4.01517 10.4797 -0.502435 7.87628 4.1838 7.23901C8.87003 6.60175 12.9501 8.17937 13.2998 10.7595C13.6495 13.3397 10.1368 15.9431 5.45056 16.5804V11.731V11.7232Z" fill="#D29BEF"/>
<path d="M5.41134 11.7261H-0.704857L-3.59587 13.0939C-3.93781 10.5449 -0.471709 7.9725 4.16012 7.343C8.78419 6.71351 12.8176 8.26782 13.1673 10.8169C13.5093 13.3659 10.0432 15.9383 5.41134 16.5678V11.7261Z" fill="#D39CF0"/>
<path d="M5.37309 11.7247H-0.704246L-3.52531 13.1236C-3.86726 10.6056 -0.440014 8.06434 4.13742 7.44262C8.70708 6.82089 12.6939 8.35966 13.0358 10.8776C13.3778 13.3956 9.95052 15.9369 5.37309 16.5586V11.7247Z" fill="#D39CF0"/>
<path d="M5.33387 11.7233H-0.704608L-3.45573 13.1533C-3.78991 10.6664 -0.40929 8.15621 4.11374 7.54226C8.629 6.9283 12.5614 8.45152 12.9033 10.9306C13.2453 13.4098 9.8569 15.9277 5.33387 16.5417V11.7156V11.7233Z" fill="#D49DF1"/>
<path d="M5.29558 11.7224H-0.704042L-3.38522 13.1834C-3.7194 10.7276 -0.369867 8.24849 4.08322 7.64231C8.53631 7.03613 12.4298 8.53604 12.764 10.9918C13.0982 13.4476 9.74867 15.9268 5.29558 16.5329V11.7224Z" fill="#D59DF2"/>
<path d="M5.25636 11.7249H-0.704404L-3.31564 13.2248C-3.64204 10.8001 -0.339142 8.35205 4.05955 7.75365C8.466 7.15524 12.2974 8.6396 12.6315 11.0643C12.9657 13.489 9.65505 15.9371 5.25636 16.5355V11.7327V11.7249Z" fill="#D59EF2"/>
<path d="M5.21811 11.724H-0.703792L-3.24508 13.2549C-3.57149 10.8613 -0.307443 8.44437 4.03684 7.85373C8.38113 7.26309 12.1736 8.72414 12.5 11.1178C12.8264 13.5114 9.5624 15.9284 5.21811 16.519V11.724Z" fill="#D69EF3"/>
<path d="M5.1789 11.7225H-0.704153L-3.1755 13.2846C-3.49413 10.9221 -0.27672 8.53621 4.01317 7.95334C8.30305 7.37048 12.0412 8.81598 12.3676 11.1785C12.6862 13.5411 9.46878 15.9269 5.1789 16.5098V11.7225Z" fill="#D69FF3"/>
<path d="M5.1387 11.7255H-0.705493L-3.1069 13.3187C-3.42553 10.9872 -0.246972 8.63243 3.98851 8.05733C8.224 7.48224 11.9155 8.90443 12.2341 11.2359C12.5527 13.5674 9.37418 15.9221 5.1387 16.4972V11.7177V11.7255Z" fill="#D79FF4"/>
<path d="M5.10143 11.7241H-0.703904L-3.03536 13.3483C-3.34622 11.048 -0.214296 8.72427 3.96679 8.15695C8.14787 7.58963 11.7927 8.99627 12.1036 11.2966C12.4144 13.597 9.28252 15.9207 5.10143 16.488V11.7241Z" fill="#D8A0F5"/>
<path d="M5.06124 11.7231H-0.705243L-2.96676 13.3784C-3.27762 11.1092 -0.18455 8.81656 3.94213 8.25701C8.06882 7.69746 11.6593 9.08079 11.9701 11.3578C12.281 13.6271 9.18792 15.9197 5.06124 16.4793V11.7231Z" fill="#D8A0F5"/>
<path d="M5.02392 11.7242H-0.703701L-2.89527 13.4184C-3.19836 11.1802 -0.14415 8.91873 3.92036 8.35918C7.98487 7.79963 11.5365 9.17519 11.8396 11.4134C12.1426 13.6516 9.08843 15.9131 5.02392 16.4727V11.7242Z" fill="#D9A1F6"/>
<path d="M4.98372 11.7242H-0.70504L-2.82667 13.4495C-3.12976 11.2424 -0.114402 9.00417 3.89571 8.46017C7.90582 7.91616 11.403 9.26841 11.7061 11.4755C12.0092 13.6826 8.99383 15.9208 4.98372 16.4648V11.7242Z" fill="#D9A1F6"/>
<path d="M4.94454 11.7233H-0.697589L-2.74928 13.4796C-3.04459 11.3036 -0.0758667 9.09649 3.87984 8.56025C7.83555 8.02401 11.2861 9.35295 11.5814 11.529C11.8767 13.705 8.90802 15.9121 4.95231 16.4484V11.7233H4.94454Z" fill="#D9A1F6"/>
<path d="M4.9063 11.7258H-0.696973L-2.67872 13.5132C-2.97403 11.3683 -0.0441673 9.19223 3.85714 8.66377C7.75845 8.13531 11.1546 9.44869 11.4499 11.5936C11.7452 13.7386 8.81538 15.9146 4.91407 16.4431V11.7258H4.9063Z" fill="#DAA2F7"/>
<path d="M4.86708 11.7248H-0.697339L-2.60914 13.5433C-2.89668 11.4295 -0.0134459 9.28452 3.83346 8.76383C7.68037 8.24313 11.0299 9.53321 11.3174 11.6548C11.605 13.7765 8.72176 15.9136 4.87485 16.4343V11.7248H4.86708Z" fill="#DAA2F7"/>
<path d="M4.85911 11.7232H-0.697538L-2.50831 13.534C-2.78808 11.4512 0.0485294 9.33733 3.84104 8.8244C7.63354 8.31148 10.9287 9.58601 11.2162 11.6688C11.5038 13.7516 8.65939 15.8654 4.86688 16.3783V11.7232H4.85911Z" fill="#DAA2F7"/>
</g>
</svg>
