<?xml version="1.0" encoding="UTF-8"?><svg id="Warstwa_1" xmlns="http://www.w3.org/2000/svg" viewBox="0 0 220.55 122.87"><defs><style>.cls-1{fill:#020a32;}.cls-2{fill:none;}.cls-3{fill:#b752e2;}</style></defs><g><path class="cls-1" d="m105.69,107.38H32.16V33.84h73.54v73.54Zm-64.49-9.05h55.44v-55.44h-55.44v55.44Z"/><rect class="cls-3" x="13.63" y="33.81" width="9.2" height="9.2"/><rect class="cls-3" x="13.63" y="98.15" width="9.2" height="9.2"/><rect class="cls-3" x="78.14" y="79.8" width="9.2" height="9.2"/><rect class="cls-3" x="133.45" y="98.21" width="9.2" height="9.2"/><rect class="cls-3" x="32" y="15.37" width="9.2" height="9.2"/><rect class="cls-3" x="96.58" y="15.37" width="9.2" height="9.2"/><path class="cls-3" d="m137.91,33.91c-1.41,0-2.81.04-4.2.13v9.07c1.39-.1,2.79-.15,4.2-.15,16.57,0,31.6,6.76,42.46,17.67l6.4-6.4c-12.5-12.55-29.79-20.32-48.86-20.32Z"/><path class="cls-1" d="m206.92,102.92c0-18.98-7.71-36.2-20.15-48.69l-6.4,6.4c10.81,10.85,17.5,25.8,17.5,42.29,0,1.54-.06,3.07-.17,4.58h9.07c.1-1.51.15-3.04.15-4.58Z"/><path class="cls-1" d="m170.49,102.92c0,1.55-.11,3.08-.32,4.58h9.12c.17-1.5.25-3.03.25-4.58,0-11.45-4.64-21.83-12.14-29.37l-6.4,6.4c5.86,5.9,9.48,14.02,9.48,22.97Z"/><path class="cls-3" d="m137.87,61.35c-1.42,0-2.82.07-4.2.21v9.11c1.38-.18,2.78-.27,4.2-.27,9.04,0,17.22,3.69,23.14,9.65l6.4-6.4c-7.55-7.59-18-12.3-29.53-12.3Z"/></g><rect class="cls-2" width="220.55" height="122.87"/></svg>