<svg width="21" height="20" viewBox="0 0 21 20" fill="none" xmlns="http://www.w3.org/2000/svg">
<g id="icon_wf_humidity ">
<path id="Vector" d="M15.8166 3.02832H14.4258V4.41918H15.8166V3.02832Z" fill="#9CA6D1"/>
<path id="Vector_2" d="M17.2019 5.81641H15.811V7.20726H17.2019V5.81641Z" fill="#9CA6D1"/>
<path id="Vector_3" d="M10.2702 16.4694C8.78961 16.4694 7.39818 15.8929 6.35133 14.846C4.19018 12.6849 4.19018 9.16887 6.35133 7.00772L10.2702 3.08887L14.189 7.00772C16.3502 9.16887 16.3502 12.6849 14.189 14.846C13.1422 15.8929 11.7502 16.4694 10.2702 16.4694ZM10.2702 5.06887L7.34104 7.99801C5.72618 9.61287 5.72618 12.2409 7.34104 13.8563C8.12333 14.6386 9.1639 15.0694 10.2702 15.0694C11.3765 15.0694 12.417 14.6386 13.1993 13.8563C14.8142 12.2414 14.8142 9.61344 13.1993 7.99801L10.2702 5.06887Z" fill="#9CA6D1"/>
</g>
</svg>
