<svg width="20" height="20" viewBox="0 0 20 20" fill="none" xmlns="http://www.w3.org/2000/svg">
<g id="icon_wf_temperature_v2">
<g id="Group">
<path id="Vector" d="M13.9173 5.80176H12.1133V7.20176H13.9173V5.80176Z" fill="#9CA6D1"/>
<path id="Vector_2" d="M9.33177 12.7744H7.94092V14.1653H9.33177V12.7744Z" fill="#9CA6D1"/>
<path id="Vector_3" d="M10.8238 10.7793V3.01074H6.37863V10.7793C5.57063 11.4416 5.09863 12.4273 5.09863 13.4867C5.09863 15.4182 6.66949 16.989 8.60092 16.989C10.5323 16.989 12.1038 15.4182 12.1038 13.4867C12.1038 12.4273 11.6318 11.4416 10.8238 10.7793ZM9.42378 4.41074V6.4936H7.77863V4.41074H9.42378ZM8.60092 15.589C7.44149 15.589 6.49863 14.6462 6.49863 13.4867C6.49863 12.7713 6.85806 12.1107 7.4592 11.721L7.77863 11.5142V7.8936H9.42378V11.5142L9.7432 11.721C10.3449 12.1113 10.7038 12.7713 10.7038 13.4867C10.7038 14.6462 9.76035 15.589 8.60092 15.589Z" fill="#9CA6D1"/>
<path id="Vector_4" d="M14.9007 3.01074H12.1133V4.41074H14.9007V3.01074Z" fill="#9CA6D1"/>
<path id="Vector_5" d="M14.9007 8.59375H12.1133V9.99375H14.9007V8.59375Z" fill="#9CA6D1"/>
</g>
</g>
<defs>
<clipPath id="clip0_5846_71585">
<rect width="20" height="20" fill="white"/>
</clipPath>
</defs>
</svg>
