<svg width="26" height="27" viewBox="0 0 26 27" fill="none" xmlns="http://www.w3.org/2000/svg">
<path d="M9.3652 13.9751H7.55708V15.7832H9.3652V13.9751Z" fill="#9CA6D1"/>
<path d="M19.9806 10.8623C18.2498 9.13145 16.0011 8.03723 13.5906 7.74157C12.9569 6.0434 11.3189 4.83105 9.40309 4.83105C6.93978 4.83105 4.93555 6.83528 4.93555 9.2986C4.93555 9.76437 5.09378 10.3527 5.23492 10.7851C3.67121 12.5181 2.81618 14.7363 2.81618 17.0927V19.5025H21.3616V21.1449H16.6155V22.9649H23.1816V18.5925C23.1816 15.6723 22.0443 12.9267 19.9799 10.8616L19.9806 10.8623ZM4.63692 17.6825V17.0927C4.63692 15.0305 5.44738 13.1005 6.91972 11.6572L7.35281 11.2323L7.12698 10.6692C6.97172 10.2807 6.75555 9.58831 6.75555 9.2986C6.75555 7.83888 7.94338 6.65105 9.40309 6.65105C10.8628 6.65105 12.0506 7.83888 12.0506 9.2986C12.0506 10.144 11.6614 10.9188 10.9824 11.4239L12.0692 12.8836C13.1107 12.1088 13.7644 10.9069 13.8595 9.62174C15.681 9.94711 17.3695 10.8244 18.6947 12.1489C20.1998 13.654 21.1135 15.5921 21.3193 17.6825H4.63692Z" fill="#9CA6D1"/>
</svg>
