<svg width="24" height="24" viewBox="0 0 24 24" fill="none" xmlns="http://www.w3.org/2000/svg">
<path d="M12.8399 16.9999V17.0999H12.9399H16.082C17.1291 17.0999 18.0253 16.8935 18.7661 16.4755L18.7664 16.4754C19.5067 16.0543 20.0706 15.4526 20.4571 14.6729L20.4572 14.6727C20.8432 13.8904 21.0343 12.9615 21.0343 11.8891C21.0343 10.8236 20.845 9.90286 20.4621 9.1304C20.0793 8.35452 19.5273 7.75774 18.8068 7.34305C18.0859 6.92486 17.2227 6.71812 16.2212 6.71812H12.9399H12.8399V6.81812V16.9999ZM19.2472 9.8073L19.2473 9.8075C19.5086 10.3849 19.6411 11.0778 19.6411 11.8891C19.6411 12.7071 19.5069 13.4066 19.2423 13.9906C18.9788 14.5722 18.5801 15.0187 18.0449 15.3327C17.5108 15.6461 16.8319 15.8062 16.0024 15.8062H14.2729V8.01187H16.1416C16.9239 8.01187 17.5694 8.16992 18.0836 8.47977L18.084 8.48C18.5991 8.78711 18.9867 9.22836 19.2472 9.8073Z" fill="black" stroke="black" stroke-width="0.2"/>
<path d="M4.18442 17V17.1H4.28442H10.7077H10.8077V17V15.9062V15.8062H10.7077H6.13079L8.33474 13.449L8.33488 13.4488C8.91936 12.8212 9.37761 12.2881 9.70862 11.8501C10.0435 11.4081 10.2814 11.0035 10.4185 10.6367C10.5585 10.2678 10.6287 9.88964 10.6287 9.50282C10.6287 8.96157 10.4932 8.46774 10.2213 8.02375C9.94987 7.58058 9.57542 7.22891 9.10015 6.96905C8.62284 6.70808 8.07729 6.57896 7.46624 6.57896C6.85835 6.57896 6.30679 6.70814 5.81374 6.96836L5.81349 6.96849C5.32398 7.22865 4.93607 7.59236 4.65148 8.05868C4.36561 8.52709 4.2242 9.06927 4.2242 9.6818V9.7818H4.3242H5.49749H5.59749V9.6818C5.59749 9.30775 5.67251 8.98673 5.81893 8.71552C5.96888 8.44388 6.17893 8.23389 6.45063 8.08398L6.45097 8.0838C6.72539 7.93099 7.04946 7.85282 7.42647 7.85282C7.78117 7.85282 8.09746 7.92144 8.37728 8.05664C8.65661 8.1916 8.87424 8.38176 9.0328 8.62737L9.03279 8.62737L9.03328 8.62811C9.19342 8.8714 9.27533 9.16155 9.27533 9.50282C9.27533 9.80045 9.21527 10.085 9.09494 10.3573L9.09472 10.3578C8.97653 10.6293 8.79291 10.9234 8.54152 11.2401C8.28813 11.556 7.9649 11.9288 7.57146 12.3586L7.57139 12.3587L4.21059 16.0376L4.18442 16.0663V16.1051V17Z" fill="black" stroke="black" stroke-width="0.2"/>
</svg>
