<svg width="22" height="22" viewBox="0 0 22 22" fill="none" xmlns="http://www.w3.org/2000/svg">
<path d="M12.937 14.654L13.75 17.5L14.563 14.654C14.7731 13.9189 15.1671 13.2494 15.7077 12.7087C16.2484 12.1681 16.9179 11.7741 17.653 11.564L20.5 10.75L17.654 9.937C16.9189 9.72687 16.2494 9.3329 15.7087 8.79226C15.1681 8.25162 14.7741 7.58214 14.564 6.847L13.75 4L12.937 6.846C12.7269 7.58114 12.3329 8.25062 11.7923 8.79126C11.2516 9.3319 10.5821 9.72587 9.847 9.936L7 10.75L9.846 11.563C10.5811 11.7731 11.2506 12.1671 11.7913 12.7077C12.3319 13.2484 12.7259 13.9179 12.936 14.653L12.937 14.654ZM4.491 7.465L4.75 8.5L5.009 7.465C5.15725 6.87159 5.46398 6.32962 5.89639 5.89703C6.3288 5.46444 6.87065 5.15749 7.464 5.009L8.5 4.75L7.464 4.491C6.87065 4.34251 6.3288 4.03556 5.89639 3.60297C5.46398 3.17038 5.15725 2.62841 5.009 2.035L4.75 1L4.491 2.035C4.34267 2.62854 4.03579 3.17059 3.60319 3.60319C3.17059 4.03579 2.62853 4.34267 2.035 4.491L1 4.75L2.035 5.009C2.62853 5.15733 3.17059 5.46421 3.60319 5.89681C4.03579 6.32941 4.34267 6.87147 4.491 7.465ZM5.856 19.317L6.25 20.5L6.644 19.317C6.75446 18.9856 6.94055 18.6845 7.18754 18.4375C7.43453 18.1906 7.73563 18.0045 8.067 17.894L9.25 17.5L8.067 17.106C7.73563 16.9955 7.43453 16.8094 7.18754 16.5625C6.94055 16.3155 6.75446 16.0144 6.644 15.683L6.25 14.5L5.856 15.683C5.74554 16.0144 5.55945 16.3155 5.31246 16.5625C5.06547 16.8094 4.76437 16.9955 4.433 17.106L3.25 17.5L4.433 17.894C4.76437 18.0045 5.06547 18.1906 5.31246 18.4375C5.55945 18.6845 5.74554 18.9856 5.856 19.317Z" stroke="black" stroke-width="1.5" stroke-linecap="round" stroke-linejoin="round"/>
</svg>
