<svg width="24" height="24" viewBox="0 0 24 24" fill="none" xmlns="http://www.w3.org/2000/svg">
<g clip-path="url(#clip0_1195_13601)">
<path fill-rule="evenodd" clip-rule="evenodd" d="M12.9636 6.3247C12.9636 5.90611 12.8662 5.49326 12.679 5.11886C12.5172 4.79523 12.4221 4.44235 12.3996 4.08122L12.3455 3.21545L12.2914 4.08119C12.2688 4.44232 12.1738 4.79522 12.0119 5.11885C11.8248 5.49326 11.7273 5.90611 11.7273 6.32471V18.6516C11.7273 19.0702 11.8248 19.4831 12.0119 19.8575C12.1738 20.1811 12.2688 20.534 12.2914 20.8952L12.3455 21.7609L12.3996 20.8951C12.4221 20.534 12.5172 20.1811 12.679 19.8575C12.8662 19.4831 12.9636 19.0703 12.9636 18.6516V6.3247ZM9.58805 6.35523C9.77529 6.72963 9.87273 7.14249 9.87273 7.56108V17.4153C9.87273 17.8339 9.77529 18.2467 9.58805 18.6212C9.42625 18.9448 9.33124 19.2977 9.30864 19.6588L9.25455 20.5245L9.20045 19.6588C9.17785 19.2977 9.08285 18.9448 8.92104 18.6212C8.7338 18.2467 8.63636 17.8339 8.63636 17.4153V7.56108C8.63636 7.14249 8.7338 6.72963 8.92104 6.35523C9.08285 6.03159 9.17785 5.6787 9.20045 5.31757L9.25455 4.45182L9.30864 5.31757C9.33124 5.6787 9.42625 6.03159 9.58805 6.35523ZM8.32727 8.79744C8.32727 8.37882 8.22983 7.96599 8.0426 7.5916C7.88079 7.26794 7.78577 6.91506 7.7632 6.55393L7.70909 5.68818L7.65498 6.55393C7.63241 6.91506 7.53739 7.26794 7.37557 7.5916C7.18837 7.96599 7.09091 8.37882 7.09091 8.79744V16.1789C7.09091 16.5975 7.18837 17.0104 7.37557 17.3848C7.53739 17.7084 7.63241 18.0613 7.65498 18.4224L7.70909 19.2882L7.7632 18.4224C7.78577 18.0613 7.88079 17.7084 8.0426 17.3848C8.22983 17.0104 8.32727 16.5975 8.32727 16.1789V8.79744ZM6.49716 10.0643C6.68436 10.4387 6.78182 10.8515 6.78182 11.2702V13.7062C6.78182 14.1248 6.68436 14.5376 6.49716 14.912C6.33534 15.2357 6.24032 15.5886 6.21775 15.9497L6.16364 16.8155L6.10953 15.9497C6.08695 15.5886 5.99193 15.2357 5.83012 14.912C5.64291 14.5376 5.54545 14.1248 5.54545 13.7062V11.2702C5.54545 10.8515 5.64291 10.4387 5.83012 10.0643C5.99193 9.74067 6.08695 9.38777 6.10953 9.02667L6.16364 8.16091L6.21775 9.02667C6.24032 9.38777 6.33534 9.74067 6.49716 10.0643ZM5.2363 12.4882L5.23636 12.5065V12.4698L5.2363 12.4882ZM4 12.5065L4.00006 12.4882C4.00287 12.9005 4.10019 13.3068 4.28466 13.6757C4.44648 13.9993 4.5415 14.3522 4.56407 14.7133L4.61818 15.5791L4.67229 14.7133C4.69486 14.3522 4.78989 13.9993 4.9517 13.6757C5.13617 13.3068 5.2335 12.9005 5.2363 12.4882C5.2335 12.0759 5.13617 11.6696 4.9517 11.3007C4.78989 10.977 4.69486 10.6242 4.67229 10.263L4.61818 9.39727L4.56407 10.263C4.5415 10.6242 4.44648 10.977 4.28466 11.3007C4.10019 11.6696 4.00287 12.0759 4.00006 12.4882L4 12.4698V12.5065ZM11.1335 5.11886C11.3207 5.49326 11.4182 5.90611 11.4182 6.3247V18.6516C11.4182 19.0703 11.3207 19.4831 11.1335 19.8575C10.9717 20.1811 10.8767 20.534 10.8541 20.8951L10.8 21.7609L10.7459 20.8951C10.7233 20.534 10.6283 20.1811 10.4665 19.8575C10.2793 19.4831 10.1818 19.0703 10.1818 18.6516V6.3247C10.1818 5.90611 10.2793 5.49326 10.4665 5.11886C10.6283 4.79523 10.7233 4.44233 10.7459 4.08121L10.8 3.21545L10.8541 4.08121C10.8767 4.44233 10.9717 4.79523 11.1335 5.11886ZM14.2244 5.11886C14.4116 5.49326 14.5091 5.90611 14.5091 6.3247V18.6516C14.5091 19.0703 14.4116 19.4831 14.2244 19.8575C14.0626 20.1811 13.9676 20.534 13.945 20.8951L13.8909 21.7609L13.8368 20.8951C13.8142 20.534 13.7192 20.1811 13.5574 19.8575C13.3702 19.4831 13.2727 19.0703 13.2727 18.6516V6.3247C13.2727 5.90611 13.3702 5.49326 13.5574 5.11886C13.7192 4.79523 13.8142 4.44233 13.8368 4.08121L13.8909 3.21545L13.945 4.08121C13.9676 4.44233 14.0626 4.79523 14.2244 5.11886ZM16.0545 7.56108C16.0545 7.14249 15.9571 6.72963 15.7699 6.35523C15.6081 6.03159 15.5131 5.6787 15.4905 5.31757L15.4364 4.45182L15.3823 5.31757C15.3597 5.6787 15.2647 6.03159 15.1029 6.35523C14.9156 6.72963 14.8182 7.14249 14.8182 7.56108V17.4153C14.8182 17.8339 14.9156 18.2467 15.1029 18.6212C15.2647 18.9448 15.3597 19.2977 15.3823 19.6588L15.4364 20.5245L15.4905 19.6588C15.5131 19.2977 15.6081 18.9448 15.7699 18.6212C15.9571 18.2467 16.0545 17.8339 16.0545 17.4153V7.56108ZM17.3153 7.5916C17.5026 7.96599 17.6 8.37882 17.6 8.79744V16.1789C17.6 16.5975 17.5026 17.0104 17.3153 17.3848C17.1535 17.7084 17.0585 18.0613 17.0359 18.4224L16.9818 19.2882L16.9277 18.4224C16.9051 18.0613 16.8101 17.7084 16.6483 17.3848C16.4611 17.0104 16.3636 16.5975 16.3636 16.1789V8.79744C16.3636 8.37882 16.4611 7.96599 16.6483 7.5916C16.8101 7.26794 16.9051 6.91506 16.9277 6.55393L16.9818 5.68818L17.0359 6.55393C17.0585 6.91506 17.1535 7.26794 17.3153 7.5916ZM19.1455 11.2702C19.1455 10.8515 19.048 10.4387 18.8608 10.0643C18.699 9.74067 18.604 9.38777 18.5814 9.02667L18.5273 8.16091L18.4732 9.02667C18.4506 9.38777 18.3556 9.74067 18.1938 10.0643C18.0066 10.4387 17.9091 10.8515 17.9091 11.2702V13.7062C17.9091 14.1248 18.0066 14.5376 18.1938 14.912C18.3556 15.2357 18.4506 15.5886 18.4732 15.9497L18.5273 16.8155L18.5814 15.9497C18.604 15.5886 18.699 15.2357 18.8608 14.912C19.048 14.5376 19.1455 14.1248 19.1455 13.7062V11.2702ZM20.6908 12.4882C20.6909 12.4943 20.6909 12.5004 20.6909 12.5065V12.4698C20.6909 12.476 20.6909 12.4821 20.6908 12.4882ZM19.4546 12.4882C19.4574 12.9005 19.5547 13.3068 19.7392 13.6757C19.901 13.9993 19.996 14.3522 20.0186 14.7133L20.0727 15.5791L20.1268 14.7133C20.1494 14.3522 20.2444 13.9993 20.4062 13.6757C20.5907 13.3068 20.688 12.9005 20.6908 12.4882C20.688 12.0759 20.5907 11.6696 20.4062 11.3007C20.2444 10.977 20.1494 10.6242 20.1268 10.263L20.0727 9.39727L20.0186 10.263C19.996 10.6242 19.901 10.977 19.7392 11.3007C19.5547 11.6696 19.4574 12.0759 19.4546 12.4882ZM19.4546 12.4882C19.4546 12.4821 19.4545 12.476 19.4545 12.4698V12.5065C19.4545 12.5004 19.4546 12.4943 19.4546 12.4882Z" fill="#394149"/>
</g>
<defs>
<clipPath id="clip0_1195_13601">
<rect width="17" height="18.9767" fill="white" transform="translate(4 3)"/>
</clipPath>
</defs>
</svg>
